/* XPM */
static char *c887e1dad54c428cdde4db24f896812fSwM4XcXEnZJ4PokR[] = {
/* columns rows colors chars-per-pixel */
"64 64 109 2 ",
"   c #050404",
".  c #0B0605",
"X  c #0A0906",
"o  c #090708",
"O  c #0D0C0B",
"+  c #110A05",
"@  c #1C0E05",
"#  c #110F0D",
"$  c #1D1006",
"%  c #12110E",
"&  c #1B120D",
"*  c #1E190C",
"=  c #110F10",
"-  c #151412",
";  c #191614",
":  c #1A1816",
">  c #1A1718",
",  c #1D1C1A",
"<  c #231205",
"1  c #2A1505",
"2  c #2E1907",
"3  c #21150D",
"4  c #2D1608",
"5  c #241D0D",
"6  c #2F1908",
"7  c #341703",
"8  c #341A06",
"9  c #391B06",
"0  c #351C0A",
"q  c #391E0A",
"w  c #221611",
"e  c #241913",
"r  c #2B1C12",
"t  c #211F1D",
"y  c #2B1F1A",
"u  c #36210D",
"i  c #3C210C",
"p  c #372D0F",
"a  c #22211E",
"s  c #2C221C",
"d  c #362214",
"f  c #3D2411",
"g  c #372F11",
"h  c #31251D",
"j  c #3A2718",
"k  c #32281F",
"l  c #3B2B1D",
"z  c #3B3115",
"x  c #211F20",
"c  c #252422",
"v  c #292725",
"b  c #2A2926",
"n  c #2B2728",
"m  c #2D2C2A",
"M  c #322721",
"N  c #332A25",
"B  c #3A2D22",
"V  c #322E2C",
"C  c #382E2B",
"Z  c #3F3227",
"A  c #32312E",
"S  c #3B312A",
"D  c #312F30",
"F  c #353331",
"G  c #393634",
"H  c #3C3936",
"J  c #3E3B39",
"K  c #41230D",
"L  c #432610",
"P  c #462814",
"I  c #423511",
"U  c #423B35",
"Y  c #423D3B",
"T  c #484036",
"R  c #45413E",
"E  c #464141",
"W  c #454241",
"Q  c #494343",
"!  c #494443",
"~  c #4C4643",
"^  c #494344",
"/  c #4A4544",
"(  c #4C4646",
")  c #4C4946",
"_  c #4F4946",
"`  c #4B4A48",
"'  c #4F4A48",
"]  c #4E4A49",
"[  c #514D47",
"{  c #504A49",
"}  c #534E4B",
"|  c #524D4C",
" . c #554F4E",
".. c #55514D",
"X. c #56504D",
"o. c #58534E",
"O. c #575350",
"+. c #565452",
"@. c #5A5351",
"#. c #585451",
"$. c #5B5655",
"%. c #5C5755",
"&. c #5F5A57",
"*. c #5F5A59",
"=. c #605B58",
"-. c #615D5B",
";. c #64605D",
":. c #666160",
">. c #686260",
/* pixels */
"% & & & & & & ; ; ; ; w w w w w w w e e e e e e e e e e e e e e e e e w w e e e e e e w e e e w w e e w w w w 3 & & & & & & & ; ",
". ; a s s c c v v M v s v N N N N N N N N N N C S C C C C C N s M N N N C C S C C C C C C N N N N v s s s y y t y y y y y s & + ",
". A _ { ' { } X.X.X.{ _ '  .X.@.@.X.$.%.$.$.$.$.$.&.-.-.-.=.%.! #.-.X.} #.-.:.>.;.;.#.Q #.&.&.#.{ ~ Y n A Y R E E Y Y Y ! _ n X ",
". A _ J J E ' | | | | ' J Y ! { G n |  .E G m t , a A ` &.&.&._ O.#.V , n R +.*.$.&.F t  .%.#.Y c G G - X , H Y E / ^ E Q ! n . ",
". A E , O , H _ { | } R ; O c J : , | / , F O . . . X c #.-.=._ | O.V O X # v Y V A ; Y %.$.@.V O b J v o   % A / ( ( / ( / n + ",
". F / V O   O m _ | } A X   X A t - / ' , E c : O O X , X.-.=.! { $./ v X ; - : - O v @.$.$.O.F X b Y V O , - - E { ( / / E c . ",
"# G E F - X - O m | / , X ; X a a O m ' , E | Y - a m F #.=.&.J E $.O.H = c b O X   F  .G ( } v   , J J - m H - c } ' ( / E V + ",
"- J E F - X v ; O H G O ; F ; - v % , E ; Y $.| , a ' | $.&.O.A F O.O.E - c m X O   v c , E / ; . O , J ; m ' F % Y | { ( Q F + ",
"- H Y A -   b b X , b O b J a O , : , F ; H O.' a : { $.$.%.' n t { O.! - , v X -   X ; J _ H # O   : E : c / J # m ' ( / E F + ",
"# F J m -   v D X - c % F J a O ; a c t - F ' / , , } @.$.#.E c : Y | ! - : ; X , X O H _ E F O     : R > O F c X v ! / E R V + ",
". V G A ;   c ,   - b ; H H : X - c F - - G ' R ; c | O.@./ m , ; G ' E ; O X O v O O V n v b   O : O F , o ; X O V R E E Y n . ",
". V J G ,   - X   t J a H A O O - a E - O H | J - m } | | G v , ; A ' Y ;     c F O . O X , :   c F O c a X .   a H E E Y Y m . ",
". V Y H t       O F _ m b ,   ; : a ' t O J ' Y - A | _ E m v , , J ' F #   - J H =   O c F % . n J , - v O X : J E E E Y Y m . ",
". m H G ,       , J ! F O X   b , , ' n O G ' R % m ' / Y A v , c ` / a   # G ' Y , ; V E R - # F J F , F - : H E E J Y Y Y n . ",
". m F F c     X V Y E J , X - G : ; / G O G ' E ; , E R R G b : , J / c - F ' ' / G m H / / F , > A G H R V H J R J , V Y J n . ",
". n F F n O   : H J Y Y Y A G E c , Q Y t Y ' _ b v m ; H F v ; c Y E H F H E J G ` v , E J c X O n - c m F J H H t - F H J m . ",
"X n F F F c ; V H J J Y F F G J Y Y / ( J ! / H : b c X v b v , b E E Y J t v v - E F = G c o X n m X - X - m m , O n G H J m . ",
". n F F F A m m n n G m X X O O c Y E E V m E F O # ,   , m m a v Y E Y Y , , , o n G O c O   , J m X O X = = , X t G H H H V . ",
"O n A F A n : o     a c         O c V c X , Y F O   ;   , H m , a G Y Y Y > ; , X - n O c O   - m n   O O , O - O m F G J J V . ",
"O n A m v -         % a X   O . . o O X : H R A X   X   : m v - , J E E J - = ; - - - O n ;     O : o - X , O - O , - m F G m . ",
"O n A m ;     O ; X   , X X -         : A v m n X       ; c c - - G Y Y F - O - - v X X m m -     O   ; X : X -     : A F F n . ",
"O m A c X   X v F :   ; O       - O X c ; X c c   - #   ; A m : % m J Y F # X - - F -   v m :     O   ; O - o =   - n A F F b . ",
"O m m :     : A F c   - O     O n -   X O n H a   ; t   ; A m - - c G Y A O o - = D ,   : c #   O >   - X   O ; X : , v A F b . ",
"O m m ;     : b n ;   - O   X n F -   O v A G ,   ; m t v F m - - a J R n   X : O n ,   - :     , ,   - X   , ; O -   , A F n . ",
"O m m ,       X X     ; O   , H F O   - - % m a   , G F F A a - - n R R a   O a O b ,   O O   - m ,   - X O c X     O v V F m . ",
"O m A c -           X c O   c G F O     % v G F c F H H H F b : , G J J a   % A m F ,   O   O b F t   > O , v .   : n A A F m . ",
"- m V m c - X       , V ;   x G G : O a A G J H F H H H H H n - c G J J F ; c G H F b ; , O , A F n : m V F m ; a F F A m m b . ",
"; m m m b c m t , : n F v O v G G A m G F G G H H H H H J H m - : F H H G b A G F F A m m , v A A m v F G F F m m F F A m m v . ",
": m m m b b m m m c b F F v F G G F V F F F G G G H H H J G V - ; F H J H F G G G F F A V v m V A V v A G F F m m F F A m m v . ",
": m m m m m m m m b n V F G G G G F F F F F F F A E X.o._ F m % , F H } X.X.Y G G G G G F V V V A A m A F F F V V A A A m m v . ",
": m m m m m m V V m m V V V V A F V V V V V F F V R X.X._ A b % ; b F } X. .Y V F F V V V V V V V V V V V A F F A m m V m m n # ",
", m m m m m m V V b v m V V V V V V m m V V V V n H [ [ R m c # : b V ! [ _ G m V V v b m V m m m m n v n V V A A m m m m m m - ",
": m m m m m n A V b s s h h s h M M M M k k M M s C U U S h s 3 3 s M S T U B h M s s s h M M M k h h s s M V V V m m m m m m ; ",
"; m m V m m m m m h q q q 0 0 8 0 i i f i f f f i f B B d f f f f f f f Z l P P P L L L L L K K i i i i q 0 s m m m m m m m m - ",
"- m m m m m m n v s 0 8 8 8 0 q q q q q q q q q q 0 l B q q q q i i i u Z j K K K i K q K K q 9 9 9 9 9 9 8 s b m m m m m m b O ",
"- m m m m m m b c r 4 1 1 < 1 8 0 0 0 q q 0 0 0 q 8 k k 6 6 2 4 8 2 8 2 B d q q q 9 8 9 9 q 9 9 9 8 8 9 9 8 e v m m m m m m v O ",
"- m m m m m n c t 3 1 1 < @ @ < 4 6 6 6 8 2 8 6 4 1 s s 1 1 1 1 1 1 < < h r 7 8 0 0 8 8 9 8 8 8 8 8 8 7 7 4 w a b m m m m m v O ",
"- n m m m m b c t ; @ @ @ @ @ @ $ < < < < < < $ $ 3 s s & & & & & 3 e w b w @ @ $ $ < < < < < < < < < < < < ; a v m m m m n v O ",
"- b b n n b c a , ; % # # # % % % # # # O O O X # a a a t a a a c a c c a , - X . O O O # # % % # # O O # % : , c b n n b b b O ",
"- b b b b b c , : - = O O # % - - - % # O O O O O X O O O O O O X O O X O % - O O O O # % - - - - % # O # - ; : a v b b b b v O ",
"; b v v v v a : ; - - % % - - - - - % % % # # O # ; t , ; O O .   * 5 5 : , ; O # # # % % - - - - - % % % - ; : , c v v v v b O ",
": b v c c c t : : ; - - - - - - - - % % % % % % % , c c , % # X X p I g t a : % - % % - % - - - - - - - - ; : : , c c c v b b O ",
": b b v c c a , , : : ; ; ; ; - - - - - - - - - - t c v a - - O O g I z a c , - - - - - - - - - ; ; ; ; : : , , t c c v b b b O ",
": b b b v c c a t , : : : : : : ; ; ; ; ; ; ; - ; : , , : - - O O ; w * - ; ; - ; ; ; ; ; : : : : : : : : , , a c c c b b b v O ",
": v b b v c c c c c a t t t a a a , , , , , : : : : : : ; ; ; % O - - - - - ; : , , , , , a c c c a a a c c c c c c v b b b c O ",
": v b b b v c c c c v c c c v v v v c a a t , , , , , : : : : - # - - - - : , , , t a a c c b v v v v v v c c c c v v b b v c O ",
"- c c v v v v v v v b b b n n n n b v c a t t t a a , , , , , - % ; ; ; ; : , t t t a c v b n m m m n n b b b b v v v v c c c % ",
"% c c v b b v b b b n m m m m m m n b b c a a a c a a t t a : # - : : : : , , t a a c v b n m m m m m m m b b b v v b v c c c % ",
"- c c v b v c v b v m m m m m m m n b v c a t , a a a t , , , ; ; : : : , , , , t t c c b n n m m m m m m b b b c c b v c c c - ",
"; c v v v c c c c v b n n m n n n b b c c t t , t t t t , , , ; - : : : , , , , t t a c v b b n n n n n b b c c c c c v v c c - ",
": c v v c c a c c v b b n n n n b b v c a t t , , , , , , : , - ; , , , , , , , t t t a c v b n n n n n b v c c a a c v v c c % ",
"; c c c c c c c c v v v n n n n b v c a a a , , t , , t , : : - - : : , , , , , , t a a c c v b n b b b v v c c c c c c c c c % ",
"- m m V m V A A F F G G G G H H G F F F F A A A F F F F A A V , , b n n m m V A F F G G G G H H H H H H H G F F F F F F F F A - ",
": H H H J J J R R R R E E R ! ! Q ! R R R R R R R R Y Y Y Y J t v H H H J J Y R R R E ! E E ! ! ! ! R R R R R R R R Y Y Y Y H - ",
"t H H J Y Y Y Y R R R R R R R R R R R R R R R R Y Y Y Y Y Y H t b Y H J Y Y Y R R R R R R R R R R R R R R R R Y Y Y Y Y Y Y G ; ",
"t U Y Y Y Y Y Y R R R R R R R R R R R Y Y Y Y Y Y Y Y Y H H H a n Y Y Y Y Y Y Y R R R R R R R R R R R Y Y Y Y Y Y Y Y J H H F : ",
"t Y Y Y Y Y Y Y Y Y R R R Y R Y Y Y Y Y Y Y Y Y U U U H H H G a n Y Y Y Y Y R Y Y Y R R R Y R Y Y Y Y Y Y Y Y Y U U U H H G F a ",
"a Y Y Y Y Y Y Y Y Y Y Y Y Y Y Y Y U Y Y Y H U H H H H H H F F a n Y Y Y Y Y Y Y Y Y Y Y Y Y Y Y Y J Y Y U H U H H H H H G G F a ",
"c J Y Y Y Y Y Y Y Y Y J Y Y Y J H H H H H H H H F H G F F F A t n Y Y Y Y U Y Y Y Y J Y Y Y Y H H H H H H H H H F H F F F F A , ",
"c H H H H H J J J H H H H H H H H H H H G F F F F F F F A A A t n H H H H H J J J H H H H H H H H H H G F F F F F F F F F A A : ",
"c F H H H H G H H H G F F F G F F F F F F F F A A A A A A A A , c H G H H H G G H H G F F F F F F F F F F F F A A A A A A A A ; ",
"a A F F F F F F F F F A A A A A A A A A A A A A A A A A A V V , a F F F F F A F F F F A A A A A A A A A A A A A A A A A V A m ; ",
"a A A A A A A A A A A A A A V A V V V m A m m m m m m m m n m , a A A A A A A A A A A A A A A A V V m m A V m m m m m m n n b - ",
": a a a a a a t a a a t t a a a a a a a a a a a a a a a a a a ; : a a a c c c a c c a a a a a a a a a a a a a a a a a a a a a - "
};
