/* XPM */
static char *result[] = {
/* columns rows colors chars-per-pixel */
"64 64 73 1 ",
"  c #4C4C4D",
". c #535353",
"X c #585857",
"o c #575858",
"O c #5B5C5C",
"+ c #605E5C",
"@ c #5F605F",
"# c #60615F",
"$ c #5D5E60",
"% c #5F6161",
"& c #636464",
"* c #676867",
"= c #6A6966",
"- c #646768",
"; c #676969",
": c #6C6C6C",
"> c #716E6C",
", c #6F706F",
"< c #72716E",
"1 c #79726F",
"2 c #6D6F71",
"3 c #6E7171",
"4 c #747474",
"5 c #7A7674",
"6 c #777877",
"7 c #7A7977",
"8 c #747778",
"9 c #77797A",
"0 c #7C7C7C",
"q c #817E7B",
"w c #7F807F",
"e c #82817E",
"r c #7C7E80",
"t c #7E8182",
"y c #838484",
"u c #888684",
"i c #878887",
"p c #8A8986",
"a c #848788",
"s c #888788",
"d c #868989",
"f c #8C8C8B",
"g c #918E8B",
"h c #8F908E",
"j c #92918E",
"k c #8C8F90",
"l c #8E9091",
"z c #949493",
"x c #999693",
"c c #979896",
"v c #9B9996",
"b c #959799",
"n c #969899",
"m c #9C9C9A",
"M c #A29D96",
"N c #A19E9A",
"B c #9FA09F",
"V c #A4A29D",
"C c #AAA59E",
"Z c #AFA89F",
"A c #9D9EA1",
"S c #9FA0A2",
"D c #A5A4A2",
"F c #A9A7A1",
"G c #ACA9A4",
"H c #A5A7A9",
"J c #ACACAA",
"K c #B2ADA5",
"L c #B2AFAA",
"P c #B5B2AC",
"I c #B9B5AF",
"U c #B5B3B0",
"Y c #C5C1B8",
/* pixels */
"JJHmnbmzzDNDAmAmmAmDJVGGZCVMVCKKKKGGBBCvvNvmchwhhjvzvcvzcvjhVCVe",
"JJJSzbnmnDAFmDDDNDGGJFFCVMMMVCKPPLKZBBVBvVvvNchjvNvhcNNvvvcjvNFe",
"UJJAzzbmzBnmmmmDFDFDFVVZGZZCVvxVGCBBjxxehvvVNvcBBBVNzVBccvvhcvNe",
"HJJAmbzfdlgzbvczmDmxmzxVZKZKKZBhBxefpgjghjeehjcBNNGmjcvhevecevVv",
"HHHSnbbfslzvfzzmNNczvvMNFKKCKCxxjBwejejjhhewfwiBccDccchwwceweNNh",
"lHHAnbbblmnmvkkNncmgMnxNCGCVZGBvBxgjjwwhjMvchwhjccvhzvvwwwvweKNc",
"lSHAnkbzlAzAzfylnVVNDmnvvCZVBVjxjjeBjwwehvxheweBchvhhmvhwecwwVvt",
"lHSAnkzkfzlvkke0yvvvDzMVVCGCVxpgxvhjxgjjfhjhcehhzhvhcmchwNBwevvc",
"aAHAmfllskzbzgsgggxvvxvCZPKVMvpjjBxjjwwejxjvveecDtDwwccVcwcwcNcw",
"tbAAbfnbkzlzlsfszzzzgsjVGKKFMCjjxxxvjwwweBvBjwhxccVwwBwewcNeeDNN",
"rkHHAbmznmzAlkbgnmcgpqpcMCGZVvjjvBvxejhhhjvhewwwwwVwwewwwwwwwvec",
"-rHHAbnbbbAmzfzzxvcfgpxMgvCVvxxcxjvBhhVvcjxhgw,wwwcwwwwwwwwccvce",
"%2AHSnAnlbvmvklnnvfuxfgvvvMMxCDVCxxBBvBvvvhhhwjcwwwwwwwwwwwwwccw",
"-2bAAnmzszbmbslvzjfyffvCZZZVVVDNGCBFFMBvczchwweeewwwwwwwwwwwwNcv",
"-rbHmbbbdkllkslmzvgfgjcVMMCCDCMxGGBCVBFvcvvfhwwjwwwXwwvwwwwwwwvc",
"-2AAAkbsydsyrygnxjpfvmvBMCGCCDMxFGMCVvVchvvihwwewwwwwwevwwvwVccc",
"$-bbbknttase0reslggfmNDGFKKMNMvxCFvCvhvxjxgww,=,www wwwBtBchcvcw",
"-rAbktkr0rerysssfcMvnMNFMZZMMDNvCFxjpegeeepww;,wwXwwwwwtwwcttVec",
"$rbbkrt2;3qsyqysgNGNFFcxgZZMjNNgBCvjepw<wwwww,ihwXwwwwtctwcwwcvc",
"-2knart223eyy8rslmDDDNxxxMNMxxNgBVBxewwww4w,;wpzwwwwwwtcchwtcVce",
"O-kbkrk84rsye6:6ysjmvggNMMKMxMMMzBvhwww5w,,,,,ezwwvwwwwtctctvveh",
"o&sbkra460qese4qsljMzgvFNZMuuMZgjxew4wwwew64w,wewwFwwwwccmtctVcc",
".$rbkda2384es630pggzglvKKZMguxMMVMxw=wBpeee6,<wewwewwwwcccVtcewe",
".%;rsyy32>40r45eyffgvcMKMKMMxgCMxMee<wgjBgjew,wwwwewwwwwcwwhwcwh",
"O$$2ryy2--19545sepfgMggZZZMZMeMejeeMjevxwwwwww:wwwtwwwttwwwwtcwt",
".o.$2yk8>>>>4>4espgxMqgZMMCCMMMqeeexvhewwwwww#=<%www%wttctwwtBtc",
" . o%rs9>4>28:>0ussgMggMgMCMMeqqjgjeewwwwww;===#owwwwwwwttcwwcct",
"   .$4s924:40>-17515qqeMgMCgeqqqjMxw=w=w*wwww#@@%o%w%%wwwwwwwhtc",
" ...O8a94>1re8>::>15qqqegMZMMqq=eeeww+@#@#www%oow%wwo%wwoww@wwww",
"o.  %rfrr4rase51>511q>qqgxeMqq++eeeeew=+oo@#@@-wwwwwww%%wow@wwww",
"Oo .+rfsrryslsq1175q>+qqgCMxqqX+weexvew#o@@o;-wwttwwwww@@wwoOwww",
"XoOo$rlsr59flsqqqqeqqq=qqqxqqqq.wejxxeewwwwowwwtttttwwwwwowowwww",
"oo.o-sbsyessfgllljzsuq1q1eeegje<weMMexvhpf94640ffachdydw;*6*;66,",
"$$$$-sjsssxzlzbzzxcjpeegexMgMjg5weMMMMvezzyye=0uyyzydtft4:9&@;:4",
"$$$o2kzslkbbzzzmnNmvjueeexexeew=+weecjvcxue64&*0aulaiyt0wwt,@@&:",
"$$o$:kblssbzzzjzbMVvxpgpeMVBgew#+weejjjhjzp06::7wizfdytudid6:@X@",
"ooO-2klssyzzzggjzNNggejjeMMCxhBwwwegchewizupw6ww86pytyyyiyd04,@X",
"$.o&1klyqrszlggjzDNbvegVZxeVxxvpeg<<hewwhfi0ywydi6ywfpzfhhlawy7#",
"&O$&4kltr9gggugfgnnjjweMMxxMvxVBxjwww,wfhzjwy0pzfyy4alnzdhhdhhi,",
"OX$&<slr11eeuuqggzvfe<5eevZewjVVBFew,wwwczfiw:whzaf8tahfifhddhy8",
"$&1rsAz067sssuufjzls5>17exeMgxBBvBxeggwwppeii,wffwi33:wwwtkfadht",
"&-0knnzs09ysuuugljuq>qgqegMKBxBzzzjvBhfw,wwfi6,7tww;;@@&;3dtwdlt",
"5rAmnllq45rspeufffq15gDMggZIZGGDDGCBBBjfw;hzzw<7iww@o@@&%%932tzt",
"nHAAlss4=:37q7esqq>1szHHBjVCLLJGDLCFGBBzhwifl6<4iiw@&::w,9t82wkk",
"JHbklsy4:>:;:>>5411ylxNGFPZBJPJVBDFDLBBBBw6wywwww=wwww3wwttw8wtt",
"SAsasrrr490188>>:3egcnDLLYIJDGCBBVvcGBDBBwwwphyiewwwttttttktttw:",
"rblsr4r11365q00yq7flflvDJPIIJLJVDDBwBBczzefzvfdhfwhhzznldfdddft3",
"rbltrrtr44resssseygglgsBCJIIPLPVDVBhjvchhwizBzhizfBjzkhztfzdkzlt",
"rlkratksrrssssys0fnnzpjDFGIIFPUBNcNmBmvzwwwcBBhwhizzfwwwttddkznk",
"abatatks00sskeqqwhmVzpxDJPGFmPJmhheNmGccjwwccewwfwhktww,34ttkBBt",
"Abaasassrqssse00afjzffvFGPGMVGDjwzwhcmvmjwhhwetchfhwww@@%;wwknnl",
"AAaaklks0rskssr0yfjhzfvDVGVGFJFxvvvwwhhhewwwccwhzfdw@*@;3,3wtkll",
"bkr2rtsr8ysrqttsiihjjzvBVFFDVMVjevheewwwwwwwemwmzww4@@;ww;wwwtll",
"at2-r4>::8r1911rwwfifhBBVVMCvnvfecvehwwwwwwwwwwwzww;@.%32wwttttt",
"rr-rte0rrq9rr:$:6,wifzBjmFVLVnxywhewzeehww#&wwwwdww;;@@@w2wwwttt",
"rrrrsrsst5qyt0<rw6wwhBBBmGCCFMmxhvwweehhwwwwwwwcdww3w44,2$$w2;ww",
"kr9afrsyr1yssr8ehwwhlccBBNVGNcNBvvhwwfwvtAtwwwttttttttttw%o%$o-w",
"aktsfsfs8refs58yzcwwtdhhNNFKNvDBvNhwcwhmStBtttttttttttttwt2-$$$-",
"lkrfkkzltyyssyrewtwwwwfBVVFFvjVBmDBzzwzmHHHttttttHttttttwt;w-o-w",
"bkrakkzlyfssss85ww&&wtzVGVGGvjvvzBmcczhmtHHStDtBttttttAtw-;;-wtt",
"bkrtsasa0teysfr5www&wwhvDDGLVNcccmccczznAtHtttttttHtttttttttwttt",
"bar2yyrr6ersfstytttwwwtvVGGGVvhwnmhzmllcHttttttttSHtttAttttt-ttt",
"br22asrr88rrrtsstcmt*#wcBVJGvcBtcBccmntctHtttttttttttttttttttttt",
"At88tssyq0758ssathnhw&wecvBmhwchhnclnntcttt2ttttttHt8tttt2tttttt"
};
