/* XPM */
static char *_834c5e9bbac4d11d0a1fee051d4e181k3OkSodMgyEV1jF8[] = {
/* columns rows colors chars-per-pixel */
"64 64 230 2 ",
"   c #020101",
".  c #0B0304",
"X  c #060B05",
"o  c #0C0A06",
"O  c #0D030A",
"+  c #0C0B09",
"@  c #050008",
"#  c #120405",
"$  c #12010B",
"%  c #140A0A",
"&  c #1C0D0C",
"*  c #180808",
"=  c #0D1409",
"-  c #1E100E",
";  c #13150E",
":  c #1B0D11",
">  c #170914",
",  c #1D1312",
"<  c #1B1A19",
"1  c #220D0A",
"2  c #290A0E",
"3  c #2C180F",
"4  c #260D1B",
"5  c #260D14",
"6  c #231413",
"7  c #2A1514",
"8  c #251B16",
"9  c #2C1A14",
"0  c #241D1A",
"q  c #2B1C1B",
"w  c #29111C",
"e  c #331E1B",
"r  c #3B191C",
"t  c #341717",
"y  c #361F0F",
"u  c #0D2C0B",
"i  c #11210F",
"p  c #0B3606",
"a  c #1A2818",
"s  c #183715",
"d  c #11360A",
"f  c #2C221D",
"g  c #24281B",
"h  c #32221D",
"j  c #3C241B",
"k  c #291B22",
"l  c #381B25",
"z  c #2D0E24",
"x  c #2D2322",
"c  c #2C2E2B",
"v  c #3A2325",
"b  c #3A2A24",
"n  c #3C242B",
"m  c #3D2C2B",
"M  c #342626",
"N  c #2B3827",
"B  c #3B332E",
"V  c #30332B",
"C  c #3E3333",
"Z  c #373E35",
"A  c #3E2F39",
"S  c #47231D",
"D  c #422D2C",
"F  c #472B27",
"G  c #43322C",
"H  c #47382C",
"J  c #462A33",
"K  c #4C3631",
"L  c #423A34",
"P  c #4B3B35",
"I  c #493935",
"U  c #523C34",
"Y  c #55393A",
"T  c #573E2E",
"R  c #114C0E",
"E  c #1A4917",
"W  c #1A5616",
"Q  c #285C1E",
"!  c #26461A",
"~  c #166C0D",
"^  c #1B6915",
"/  c #1C7716",
"(  c #0F6C0A",
")  c #237A1B",
"_  c #26681D",
"`  c #274824",
"'  c #35422A",
"]  c #285E24",
"[  c #2C5828",
"{  c #345D29",
"}  c #3B463B",
"|  c #395A35",
" . c #296826",
".. c #35672D",
"X. c #2A7927",
"o. c #316130",
"O. c #387635",
"+. c #33722F",
"@. c #454437",
"#. c #54423B",
"$. c #5A473C",
"%. c #574638",
"&. c #515236",
"*. c #63493F",
"=. c #456B35",
"-. c #493B41",
";. c #573A44",
":. c #4C4542",
">. c #5A4641",
",. c #564A45",
"<. c #59534C",
"1. c #5C4D55",
"2. c #5A5654",
"3. c #4A5546",
"4. c #654D48",
"5. c #6C564D",
"6. c #67574C",
"7. c #655C53",
"8. c #695855",
"9. c #705453",
"0. c #496642",
"q. c #4A7041",
"w. c #4A7B43",
"e. c #536F4E",
"r. c #6C6559",
"t. c #74665C",
"y. c #79665A",
"u. c #6F5966",
"i. c #686665",
"p. c #776963",
"a. c #7E746C",
"s. c #74786C",
"d. c #747B6F",
"f. c #88705F",
"g. c #857568",
"h. c #927D68",
"j. c #837A71",
"k. c #8A7C79",
"l. c #188813",
"z. c #1D9B16",
"x. c #25861F",
"c. c #22951B",
"v. c #1DA817",
"b. c #1DBA16",
"n. c #17B60F",
"m. c #22AB1C",
"M. c #24B41E",
"N. c #2B8925",
"B. c #338A2C",
"V. c #2C9325",
"C. c #339B2D",
"Z. c #3A8A35",
"A. c #3C9436",
"S. c #2BA826",
"D. c #2BB524",
"F. c #32B42D",
"G. c #37A632",
"H. c #3ABA36",
"J. c #32A32E",
"K. c #459637",
"L. c #478E3C",
"P. c #42B33C",
"I. c #41A93D",
"U. c #0FCD07",
"Y. c #15CC0D",
"T. c #18CA0F",
"R. c #16D20E",
"E. c #15DA0C",
"W. c #18D80F",
"Q. c #1AC512",
"!. c #1ACC12",
"~. c #1FC918",
"^. c #1BD412",
"/. c #1CDA14",
"(. c #1FDA19",
"). c #0FD106",
"_. c #23C61C",
"`. c #22D51A",
"'. c #22DB1A",
"]. c #1BE113",
"[. c #21E819",
"{. c #2BCA24",
"}. c #2AC425",
"|. c #35C92E",
" X c #2BD423",
".X c #2BDB24",
"XX c #33D62C",
"oX c #3CC633",
"OX c #39DC31",
"+X c #37D830",
"@X c #2EE426",
"#X c #41D73B",
"$X c #4B9749",
"%X c #648F5D",
"&X c #48A843",
"*X c #53A24B",
"=X c #58B454",
"-X c #4BB547",
";X c #61A959",
":X c #708A6C",
">X c #68AC61",
",X c #52C74B",
"<X c #4CD347",
"1X c #59C854",
"2X c #8A8577",
"3X c #9C8D78",
"4X c #7E7F86",
"5X c #8B8684",
"6X c #959686",
"7X c #9D9B92",
"8X c #998C83",
"9X c #A9988C",
"0X c #A79793",
"qX c #9DA093",
"wX c #A4A79D",
"eX c #B0A59B",
"rX c #A6A5A2",
"tX c #B6B6AA",
"yX c #B9B5B5",
"uX c #B1A4B2",
"iX c #C0BDBC",
"pX c #C7C1BE",
"aX c #C1B7C4",
"sX c #C7C9C6",
"dX c #DBD5DC",
"fX c #CEDBD0",
"gX c #D5E5DA",
"hX c #DDEBE2",
"jX c #EAF3EC",
"kX c #F3F9EE",
/* pixels */
"!.!.!.!.!.!.!.!.!.!.!.!.!.!.!.!.!.Y.R.^.^.^.T.!.!.!.!.!.!.!.!.!.!.!.!.!.!.!.!.!.!.!.!.!.!.!.!.!.!.!.!.!.!.!.!.!.!.!.!.!.!.!.!.!.",
"!.!.!.!.!.!.!.!.!.!.!.!.!.!.!.!.^.<XA./ l.l._.R.!.!.!.!.!.!.!.!.!.!.!.!.!.!.!.!.!.!.!.!.!.!.!.!.!.!.!.!.!.!.!.!.!.!.!.!.!.!.!.!.",
"!.!.!.!.!.!.!.!.!.!.!.!.!.!.!.^.;X8.uXdXsXaX:XM.^.!.!.!.!.!.!.!.!.!.!.!.!.!.!.!.!.!.!.!.!.!.!.!.!.!.!.!.!.!.!.!.!.!.!.!.!.!.!.!.",
"!.!.!.!.!.!.!.!.!.!.!.!.!.!.R.=X1.rXfXhXhXgXdXs.m.^.!.!.!.!.!.!.!.!.!.!.!.!.!.!.!.!.!.!.!.!.!.!.!.!.!.!.!.!.!.!.!.!.!.!.!.!.!.!.",
"!.!.!.!.!.!.!.!.!.!.!.!.!.Y.+Xr.7.qXsXjXjXhXfXk.=.(.!.!.!.!.!.!.!.!.!.!.!.!.!.!.!.!.!.!.!.!.!.!.!.!.!.!.!.!.!.!.!.!.!.!.!.!.!.!.",
"!.!.!.!.!.!.!.!.!.!.!.!.!.R.G.m %.$.qXsXsXtX2Xg.B m.^.!.!.!.!.!.!.!.!.!.!.!.!.!.!.!.!.!.!.!.!.!.!.!.!.!.!.!.!.!.!.!.!.!.!.!.!.!.",
"!.!.!.!.!.!.!.!.!.!.!.!.!.^.C.4 j F 7.6X6X7Xr.5.m v.^.!.!.!.!.!.!.!.!.!.!.!.!.!.!.!.!.!.!.!.!.!.!.!.!.!.!.!.!.!.!.!.!.!.!.!.!.!.",
"!.!.!.!.!.!.!.!.!.!.!.!.!.^.C.5 y G r.6XtXwX2X5.f n.^.!.!.!.!.!.!.!.!.!.!.!.!.!.!.!.!.!.!.!.!.!.!.!.!.!.!.!.!.!.!.!.!.!.!.!.!.!.",
"!.!.!.!.!.!.!.!.!.!.!.!.!.^.O.v *.f q 6 p.6.m 6 # V.^.!.!.!.!.!.!.!.!.!.!.!.!.!.!.!.!.!.!.!.!.!.!.!.!.!.!.!.!.!.!.!.!.!.!.!.!.!.",
"!.!.!.!.!.!.!.!.!.!.!.!.!.'.|   f   i.4X%   d.iX4 A.R.!.!.!.!.!.!.!.!.!.!.!.!.!.!.!.!.!.!.!.!.!.!.!.!.!.!.!.!.!.!.!.!.!.!.!.!.!.",
"!.!.!.!.!.!.!.!.!.!.!.!.!.(.$X$ 8 f 2.2.0 6 f n s `.!.!.!.!.!.!.!.!.!.!.!.!.!.!.!.!.!.!.!.!.!.!.!.!.!.!.!.!.!.!.!.!.!.!.!.!.!.!.",
"!.!.!.!.!.!.!.!.!.!.!.!.!.!.^.Z.z y.%.3 #.r.,.l ^ E.!.!.!.!.!.!.!.!.!.!.!.!.!.!.!.!.!.!.!.!.!.!.!.!.!.!.!.!.!.!.!.!.!.!.!.!.!.!.",
"!.!.!.!.!.!.!.!.!.!.!.!.!.!.!.`.q.: < B j.p.G b P._.^.R.!.!.!.!.!.!.!.!.!.!.!.!.!.!.!.!.!.!.!.!.!.!.!.!.!.!.!.!.!.!.!.!.!.!.!.!.",
"!.!.!.!.!.!.!.!.!.!.!.!.!.!.Y.OXq.    . m f & % ,.L =.D.^.!.!.!.!.!.!.!.!.!.!.!.!.!.!.!.!.!.!.!.!.!.!.!.!.!.!.!.!.!.!.!.!.!.!.!.",
"!.!.!.!.!.!.!.!.!.!.!.!.!.U.<Xr.r . : q G 9 6 . v 7 0Xk.B.^.!.!.!.!.!.!.!.!.!.!.!.!.!.!.!.!.!.!.!.!.!.!.!.!.!.!.!.!.!.!.!.!.!.!.",
"!.!.!.!.!.!.!.!.!.!.!.Y.^.,X2.P K     8 y.g.#.& q & t.0X@.`.Y.!.!.!.!.!.!.!.!.!.!.!.!.!.!.!.!.!.!.!.!.!.!.!.!.!.!.!.!.!.!.!.!.!.",
"!.!.!.!.!.!.!.!.!.!.R. X>X1.j.C 7 #   . & 8 & . 6 8 9 r =.R.!.!.!.!.!.!.!.!.!.!.!.!.!.!.!.!.!.!.!.!.!.!.!.!.!.!.!.!.!.!.!.!.!.!.",
"!.!.!.!.!.!.!.!.!.^.D.s.-.,.G   x &   .             & # ) ^.!.!.!.!.!.!.!.!.!.!.!.!.!.!.!.!.!.!.!.!.!.!.!.!.!.!.!.!.!.!.!.!.!.!.",
"!.!.!.!.!.!.!.!.T.&Xi.5XtXtXt.,.8 *     .             > V.R.!.!.!.!.!.!.!.!.!.!.!.!.!.!.!.!.!.!.!.!.!.!.!.!.!.!.!.!.!.!.!.!.!.!.",
"!.!.!.!.!.!.!.!.'.0.yXkX5X,.r.t.P 8.h                 < {.Y.!.!.!.!.!.!.!.!.!.!.!.!.!.!.!.!.!.!.!.!.!.!.!.!.!.!.!.!.!.!.!.!.!.!.",
"!.!.!.!.!.!.!.R.S.i.7XtXj.1 >.G M b 7 .             = l.^.!.!.!.!.!.!.!.!.!.!.!.!.!.!.!.!.!.!.!.!.!.!.!.!.!.!.!.!.!.!.!.!.!.!.!.",
"!.!.!.!.!.!.!./.B.u.P a.:.. P b m 0 . % .           p /.!.!.!.!.!.!.!.!.!.!.!.!.!.!.!.!.!.!.!.!.!.!.!.!.!.!.!.!.!.!.!.!.!.!.!.!.",
"!.!.!.!.!.!.Y.XX} v D .     % b I C , , o           p ^.!.!.!.!.!.!.!.!.!.!.!.!.!.!.!.!.!.!.!.!.!.!.!.!.!.!.!.!.!.!.!.!.!.!.!.!.",
"!.!.!.!.!.!.Y.XXV e -   @   O , 6 G :.M .           u (.!.!.!.!.!.!.!.!.!.!.!.!.!.!.!.!.!.!.!.!.!.!.!.!.!.!.!.!.!.!.!.!.!.!.!.!.",
"!.!.!.!.!.!.Y.XX}   6 .       , D P h & &         a X.!.!.!.!.!.!.!.!.!.!.!.!.!.!.!.!.!.!.!.!.!.!.!.!.!.!.!.!.!.!.!.!.!.!.!.!.!.",
"!.!.!.!.!.!.Y.`.` v 9..   % q >.$.h , % .         R ].!.!.!.!.!.!.!.!.!.!.!.!.!.!.!.!.!.!.!.!.!.!.!.!.!.!.!.!.!.!.!.!.!.!.!.!.!.",
"!.!.!.!.!.!.T.H.B 9.K     # e #.4.6.P m ,         u ~.!.!.!.!.!.!.!.!.!.!.!.!.!.!.!.!.!.!.!.!.!.!.!.!.!.!.!.!.!.!.!.!.!.!.!.!.!.",
"!.!.!.!.!.!.^.z.n U # . . * 6 .   < 8 , %         a _.T.!.!.!.!.!.!.!.!.!.!.!.!.!.!.!.!.!.!.!.!.!.!.!.!.!.!.!.!.!.!.!.!.!.!.!.!.",
"!.!.!.!.!.!.E.B.n M X +.: . + M q e K e .         ; _.!.!.!.!.!.!.!.!.!.!.!.!.!.!.!.!.!.!.!.!.!.!.!.!.!.!.!.!.!.!.!.!.!.!.!.!.!.",
"!.!.!.!.!.Y.XX3.G * ` @X`     . % % 6 o           $ N.^.!.!.!.!.!.!.!.!.!.!.!.!.!.!.!.!.!.!.!.!.!.!.!.!.!.!.!.!.!.!.!.!.!.!.!.!.",
"!.!.!.!.!.^.*X;.%.   .[.=..   % - 7 #             O V.^.!.!.!.!.!.!.!.!.!.!.!.!.!.!.!.!.!.!.!.!.!.!.!.!.!.!.!.!.!.!.!.!.!.!.!.!.",
"!.!.!.!.R.P.n Y q = J./.e.$                     @ R !.!.!.!.!.!.!.!.!.!.!.!.!.!.!.!.!.!.!.!.!.!.!.!.!.!.!.!.!.!.!.!.!.!.!.!.!.!.",
"!.!.!.T.`.| 5 h   s (.E.*X>     @               k |.R.!.!.!.!.!.!.!.!.!.!.!.!.!.!.!.!.!.!.!.!.!.!.!.!.!.!.!.!.!.!.!.!.!.!.!.!.!.",
"!.!.!.T.|.k h ; . / `.-X0.& . @                 g _.R.!.!.!.!.!.!.!.!.!.!.!.!.!.!.!.!.!.!.!.!.!.!.!.!.!.!.!.!.!.!.!.!.!.!.!.!.!.",
"!.!.!.R.F.M Y o O v.OX,.# & . @                   ! `.Y.!.!.!.!.!.!.!.!.!.!.!.!.!.!.!.!.!.!.!.!.!.!.!.!.!.!.!.!.!.!.!.!.!.!.!.!.",
"!.!.!.^.v.m 4.% % m.{.<.0   . @                   . Q /.!.!.!.!.!.!.!.!.!.!.!.!.!.!.!.!.!.!.!.!.!.!.!.!.!.!.!.!.!.!.!.!.!.!.!.!.",
"!.!.!.^.v.D f.6 [ /.K.w , o .                       O x.^.!.!.!.!.!.!.!.!.!.!.!.!.!.!.!.!.!.!.!.!.!.!.!.!.!.!.!.!.!.!.!.!.!.!.!.",
"!.!.!.^.V.D f.l J.oXx . q % o                         . z.^.!.!.!.!.!.!.!.!.!.!.!.!.!.!.!.!.!.!.!.!.!.!.!.!.!.!.!.!.!.!.!.!.!.!.",
"!.!.!.`.` v *.N (.K.r * O @                             ~ ^.!.!.!.!.!.!.!.!.!.!.!.!.!.!.!.!.!.!.!.!.!.!.!.!.!.!.!.!.!.!.!.!.!.!.",
"!.!.Y..X| U F w.].*Xl . .                           o   ~ ^.!.!.!.!.!.!.!.!.!.!.!.!.!.!.!.!.!.!.!.!.!.!.!.!.!.!.!.!.!.!.!.!.!.!.",
"!.!.T.H.:.e @.oXY.b.g 2 1 . . . @                   f w / ^.!.!.!.!.!.!.!.!.!.!.!.!.!.!.!.!.!.!.!.!.!.!.!.!.!.!.!.!.!.!.!.!.!.!.",
"!.!.R.F.C 5 Q /.Q./.E 2 1 . . * &                     q L.E.Y.!.!.!.!.!.!.!.!.!.!.!.!.!.!.!.!.!.!.!.!.!.!.!.!.!.!.!.!.!.!.!.!.!.",
"!.!.`.+.k.1.~ /.Q./.E   +   0 j.H                   . 7 & w.XXY.!.!.!.!.!.!.!.!.!.!.!.!.!.!.!.!.!.!.!.!.!.!.!.!.!.!.!.!.!.!.!.!.",
"!.Y. XN <.n X./.Q./. .< X   ,.wX8.9                 # U K l *XR.!.!.!.!.!.!.!.!.!.!.!.!.!.!.!.!.!.!.!.!.!.!.!.!.!.!.!.!.!.!.!.!.",
"!.Y..XN m w  ./.Q.(.N.X.@   7.a.y.r + + .         . # 9 h.%.6 D.R.!.!.!.!.!.!.!.!.!.!.!.!.!.!.!.!.!.!.!.!.!.!.!.!.!.!.!.!.!.!.!.",
"!.Y.XXZ >.h.@.}.T.^.B.^ @   7.L H Y d v.c.X.O       - e H 3XY Q /.!.!.!.!.!.!.!.!.!.!.!.!.!.!.!.!.!.!.!.!.!.!.!.!.!.!.!.!.!.!.!.",
"!.Y.{.} 6.h.n 0.'.!. X) .   a.5X  ;.p ^.^.'.Z.:     . G G $.6.n ..`.T.!.!.!.!.!.!.!.!.!.!.!.!.!.!.!.!.!.!.!.!.!.!.!.!.!.!.!.!.!.",
"!.^.S.M >.j . m |.Y.E.x.c 6 eXwXL ;.p (.Q.Y..XN u i   . b 3 K p.4 A.^.!.!.!.!.!.!.!.!.!.!.!.!.!.!.!.!.!.!.!.!.!.!.!.!.!.!.!.!.!.",
"!.R.C.n $.H X #.L.R.^.C.] M 8XpXf 8.O.Y.~.!./.W l._.a     9 S 4.5.&.~.!.!.!.!.!.!.!.!.!.!.!.!.!.!.!.!.!.!.!.!.!.!.!.!.!.!.!.!.!.",
"!.^.m.O 0 O J.' { /.!.~.S.x 8.,.B m  .R.!.!./.o.) ]._.W @ . t 9 T l Z.^.!.!.!.!.!.!.!.!.!.!.!.!.!.!.!.!.!.!.!.!.!.!.!.!.!.!.!.!.",
"!.Y. XZ   O H.N _ /.!.T. X' >.P 5X: [ T.!.!.R.F.S.T.!.'.`   &   . . s `.!.!.!.!.!.!.!.!.!.!.!.!.!.!.!.!.!.!.!.!.!.!.!.!.!.!.!.!.",
"!.!.R.=X>   V.Z.D.^.!.T.|.Z I m 2.p.` !.!.!.!.^.!.!.!.(.{   o       g {.T.!.!.!.!.!.!.!.!.!.!.!.!.!.!.!.!.!.!.!.!.!.!.!.!.!.!.!.",
"!.!.!.^.O.> a /.T.!.!.Y. X2.: h L 0X..R.!.!.!.!.!.!.!.'.|         < A c.^.!.!.!.!.!.!.!.!.!.!.!.!.!.!.!.!.!.!.!.!.!.!.!.!.!.!.!.",
"!.!.!.Y..X$X/ !.!.!.!.!.'.+.k 6.#.9XL G.R.!.!.!.!.!.!./.{         . a Q.!.!.!.!.!.!.!.!.!.!.!.!.!.!.!.!.!.!.!.!.!.!.!.!.!.!.!.!.",
"!.!.!.!.Y.^./.!.!.!.!.!.Y.&Xn 5.K g.J ^ /.!.!.!.!.!.!.^.A..         ] '.!.!.!.!.!.!.!.!.!.!.!.!.!.!.!.!.!.!.!.!.!.!.!.!.!.!.!.!.",
"!.!.!.!.!.!.!.!.!.!.!.Y.^.#Xx j $.r.J ~ /.!.!.!.!.!.!.^.c.< +       ] '.!.!.!.!.!.!.!.!.!.!.!.!.!.!.!.!.!.!.!.!.!.!.!.!.!.!.!.!.",
"!.!.!.!.!.!.!.!.!.!.~.=Xq...+ y.y.9X4.~ /.!.!.!.!.!.!.W.C.$Xg       W /.!.!.!.!.!.!.!.!.!.!.!.!.!.!.!.!.!.!.!.!.!.!.!.!.!.!.!.!.",
"!.!.!.!.!.!.!.!.!.R.XXrXM   % e j %.e z.^.!.!.!.!.!.!.R.F.H.a       ( ^.!.!.!.!.!.!.!.!.!.!.!.!.!.!.!.!.!.!.!.!.!.!.!.!.!.!.!.!.",
"!.!.!.!.!.!.!.!.!.D.%Xx   1 F 7   . E Q.!.!.!.!.!.!.!.!.T.`.`       R /.!.!.!.!.!.!.!.!.!.!.!.!.!.!.!.!.!.!.!.!.!.!.!.!.!.!.!.!.",
"!.!.!.!.!.!.!.!.).-Xz . . 6 & O   O M.W.!.!.!.!.!.!.!.!.!.^.M.+     ; b.^.!.!.!.!.!.!.!.!.!.!.!.!.!.!.!.!.!.!.!.!.!.!.!.!.!.!.!.",
"!.!.!.!.!.!.!.U.+Xe.          . < X.^.!.!.!.!.!.!.!.!.!.!.!.!.=     $ G.R.!.!.!.!.!.!.!.!.!.!.!.!.!.!.!.!.!.!.!.!.!.!.!.!.!.!.!.",
"!.!.!.!.!.!.T.XX:X>       . g O.|.~.!.!.!.!.!.!.!.!.!.!.!.!.^.s     O N.^.!.!.!.!.!.!.!.!.!.!.!.!.!.!.!.!.!.!.!.!.!.!.!.!.!.!.!.",
"!.!.!.!.!.Y.,X-..   .   a A.{./.T.!.!.!.!.!.!.!.!.!.!.!.!.!.`.e..     ! (.!.!.!.!.!.!.!.!.!.!.!.!.!.!.!.!.!.!.!.!.!.!.!.!.!.!.!.",
"!.!.!.!.Y.#Xs.    .   < I.E.Y.!.!.!.!.!.!.!.!.!.!.!.!.!.!.!.Y.1X<   . = b.!.!.!.!.!.!.!.!.!.!.!.!.!.!.!.!.!.!.!.!.!.!.!.!.!.!.!."
};
