/* XPM */
static char *result[] = {
/* columns rows colors chars-per-pixel */
"64 64 250 2 ",
"   c #5C0101",
".  c #650202",
"X  c #6C0202",
"o  c #740202",
"O  c #7B0202",
"+  c #780D09",
"@  c #830302",
"#  c #8B0302",
"$  c #870A06",
"%  c #930302",
"&  c #9C0402",
"*  c #960C07",
"=  c #9C0905",
"-  c #8D160F",
";  c #95130B",
":  c #9B130C",
">  c #981B13",
",  c #A30302",
"<  c #AB0503",
"1  c #A40A05",
"2  c #AC0A05",
"3  c #A80E09",
"4  c #B30503",
"5  c #BB0503",
"6  c #B40B05",
"7  c #BB0B05",
"8  c #B80E08",
"9  c #A4140B",
"0  c #AD140B",
"q  c #A9190E",
"w  c #BC140B",
"e  c #B8170C",
"r  c #A41D12",
"t  c #AB1C12",
"y  c #B71D11",
"u  c #9A261B",
"i  c #A92619",
"p  c #B72718",
"a  c #BB301F",
"s  c #9B2C23",
"d  c #A62C22",
"f  c #AB3728",
"g  c #BC3423",
"h  c #B83827",
"j  c #B63F33",
"k  c #C30B05",
"l  c #C40905",
"z  c #CB0B05",
"x  c #D20D06",
"c  c #C4140A",
"v  c #C6160A",
"b  c #CB140A",
"n  c #CC1B0D",
"m  c #D71308",
"M  c #D41509",
"N  c #D41C0D",
"B  c #DB1C0C",
"V  c #C71D12",
"C  c #D51E10",
"Z  c #E11F0E",
"A  c #CA210E",
"S  c #D8220E",
"D  c #C42515",
"F  c #C92715",
"G  c #C52C1B",
"H  c #CB2C1A",
"J  c #D32412",
"K  c #DB2412",
"L  c #DC2B14",
"P  c #D62C18",
"I  c #C9331D",
"U  c #D3331C",
"Y  c #DC341B",
"T  c #D9391D",
"R  c #E2200F",
"E  c #E32512",
"W  c #E42D15",
"Q  c #E72C15",
"!  c #E3341C",
"~  c #E9371A",
"^  c #E53A1E",
"/  c #C73926",
"(  c #CB3A24",
")  c #D43B23",
"_  c #D63824",
"`  c #DB3C23",
"'  c #C73F32",
"]  c #E43C22",
"[  c #E83E23",
"{  c #B34233",
"}  c #B94838",
"|  c #ED411E",
" . c #C9442B",
".. c #D5432B",
"X. c #DB462A",
"o. c #C64935",
"O. c #D34C33",
"+. c #D54C37",
"@. c #DC4C33",
"#. c #C95138",
"$. c #CC533C",
"%. c #DC5236",
"&. c #D3543C",
"*. c #DB553B",
"=. c #DA583D",
"-. c #E44325",
";. c #EB4324",
":. c #E3452B",
">. c #EB4728",
",. c #E34B2D",
"<. c #EB4B2A",
"1. c #F24825",
"2. c #EB522D",
"3. c #F4522C",
"4. c #E74D32",
"5. c #E65537",
"6. c #EC5434",
"7. c #E45B3C",
"8. c #EC5C3B",
"9. c #F15532",
"0. c #F25C37",
"q. c #EB613E",
"w. c #F3633E",
"e. c #BC5647",
"r. c #BA6557",
"t. c #B97F76",
"y. c #C35447",
"u. c #C95946",
"i. c #D55A44",
"p. c #DB5D43",
"a. c #E25D42",
"s. c #EB5E42",
"d. c #CB614E",
"f. c #D86247",
"g. c #D4644B",
"h. c #DC644B",
"j. c #DB6A4D",
"k. c #CB6959",
"l. c #D46B56",
"z. c #DB6C53",
"x. c #DB745A",
"c. c #DC745B",
"v. c #E46244",
"b. c #EC6544",
"n. c #E6694A",
"m. c #EB6B4B",
"M. c #F26544",
"N. c #F36A45",
"B. c #F36D4B",
"V. c #EE714F",
"C. c #F5724E",
"Z. c #E36D52",
"A. c #EA6E52",
"S. c #EC7354",
"D. c #E67659",
"F. c #E4755A",
"G. c #EC7A5C",
"H. c #F37452",
"J. c #F67957",
"K. c #F37C5B",
"L. c #C87769",
"P. c #DA7A64",
"I. c #CA7F72",
"U. c #E57963",
"Y. c #E47D63",
"T. c #EB7E62",
"R. c #F27F61",
"E. c #F5815E",
"W. c #DC826C",
"Q. c #DA856F",
"!. c #DA8A77",
"~. c #D18878",
"^. c #ED8265",
"/. c #E3846B",
"(. c #E58468",
"). c #EC856A",
"_. c #ED8A6D",
"`. c #F48464",
"'. c #F98665",
"]. c #F38769",
"[. c #F48B6C",
"{. c #E58C73",
"}. c #EB8D72",
"|. c #E38D78",
" X c #F28D71",
".X c #EC9176",
"XX c #E4937B",
"oX c #EB957B",
"OX c #EC997E",
"+X c #F49375",
"@X c #F89475",
"#X c #F4967A",
"$X c #F49A7D",
"%X c #F99A7C",
"&X c #CB9287",
"*X c #DB9785",
"=X c #E39A86",
"-X c #E59A84",
";X c #EC9C83",
":X c #F39D82",
">X c #F89F84",
",X c #D9A596",
"<X c #EAA28A",
"1X c #EBA28B",
"2X c #F4A186",
"3X c #F3A58B",
"4X c #F9A58A",
"5X c #F4A98F",
"6X c #E7AA96",
"7X c #ECAA94",
"8X c #F3AC93",
"9X c #F7AD94",
"0X c #ECB39E",
"qX c #F3B39C",
"wX c #F8B59B",
"eX c #F9B59C",
"rX c #D8B7AB",
"tX c #EAB9A6",
"yX c #E8B7A8",
"uX c #F6B9A3",
"iX c #F4BAA4",
"pX c #F4BEAA",
"aX c #DDC5BB",
"sX c #EAC2AF",
"dX c #F5C2AD",
"fX c #F9C2AC",
"gX c #EBC7B7",
"hX c #F3C5B3",
"jX c #F5C9B6",
"kX c #F9C9B4",
"lX c #F4CCBB",
"zX c #F9CDBB",
"xX c #F9D1BE",
"cX c #ECD5C9",
"vX c #EED5C9",
"bX c #F4D3C4",
"nX c #FAD4C3",
"mX c #F3D7C8",
"MX c #F4D9CB",
"NX c #FADACB",
"BX c #F5DED2",
"VX c #F8E4D7",
"CX c #F4E4DA",
"ZX c #FBE9DC",
"AX c #F6EBE4",
"SX c #FBEDE3",
"DX c #FCF0E6",
"FX c #FCF3EB",
"GX c #FDFAF3",
"HX c #FDF9F5",
/* pixels */
"-XQ.$.XX5X} u $ + O X   X ; o + u - 5.q.a + o O + $ o # O o . . X o @ O ; G.T.' u.% @ @ # O @ & , , H F , 8 S A S ,.2.q...5.D.wX",
"6X=Xu.j.XXx.a $ $ O X   o 1 o X ; - X.%.p $ o O O @ @ = @ O X X o O @ @ * a.+./ n.1 # # % # # & 4 , S p , < c Y L 5.q.N.,.,.v.9X",
"6XQ.#.j.j.W.a : % O .   O = O X r $ F G e $ $ # O # # 1 $ @ o O O % % @ = ` H q ` , % & & % % & < < v 0 & & 6 A A 6.N.q.T P ,.E.",
"W.x.h d  .u. .t @ O X   @ 3 $ o p ; p F ,.: @ p : = % , ; $ O # @ # @ o % 2 < % 6 , % & , , , < < < 8 < # % , 5 v ,.,.T S A A T ",
"{ { - $ ; > t * O o o   @ 0 $ $ p r X.I X.t $ e = 1 # % # @ @ & @ @ o O # & , # , 7 8 4 v k 7 7 6 % & % @ @ & , , 6 v 7 w c 6 n ",
"i i o o o o @ # # @ O . o % @ $ : u X.I U * O & * < % % @ O O # O O o o O % , # & 4 5 < S ~ Y L v % % # # @ % % % & < , 6 8 < 1 ",
": $ X o o o @ # & # O   o # o @ = $ A I 7.i * y * , % % o o o @ o o X o O @ # O # , 1 7 N ~ <.Y 8 , < 8 2 % # & < & & @ # @ # # ",
"* O . X X o o @ % # O   o # O $ * O e 6 I p ; I # % * % O O $ = @ @ @ o @ # O O # 6 4 v S ~ | b 1 < 7 7 < , , 4 6 = & # # @ # & ",
"* O   . X X X O @ O o   o 9 * @ t ; e 0 6 9 + F y G / y % % 0 V , < < @ , 4 % & , l 4 7 z N K b 4 , w 7 4 , < M J I U w < < < 7 ",
"* O . O o o @ $ @ @ O . O # $ o $ t P J v 1 O F J _ a._ e 6 g h.c J H 3 J J 6 C b b < 4 l x S v 5 4 6 n 7 5 7 b N ` Y k v x b M ",
"9 ; - r ; # 3 0 1 % # X # # # o X 1 v n A A $ X.X.D.;XA./ w ' U.w Y ` w J w < n 8 < , k b S L v c l k ~ 6 7 z M P -.T n Y W M v ",
"I i f &.q : p ( q & = O t D G - X t T X.L F * ) y ( a.a.G V _ A.J F U 6 b 8 , < < b 7 J W ~ ;.W S k 7 L 7 7 K ~ 6.M.6.-.3.1.S v ",
"j.h h $.: * a %.p 3 e $ o.m.m.d + u.'.E.T.U.t i.*./ a._ y 6 D 4.n D c , < , % & & N M C Q 1.! m m z l N l 5 S ~ 6.E.q.w.N.E.w.2.",
"j.i } x.g { h q.p * 1 @ #.}.OX$.f e.-XuXeXT.p n.5.H n.p = 1 6 V 8 y < , , % # & & n b b S | ~ B E b 5 l 5 5 M S ^ N.9.2.w.[.@XE.",
"$.> d.$.g =.g %.F 3 1 @ d.9XfXd.u.{.r.Q.T.@.t 4.:.I a.y 1 , 0 V n H c 4 < , % < 2 P N N R Y ~ E W N z l 5 l z R ^ 6.| L | w.'.J.",
" .- f j } O.y I I U D * P.xXkXe.o.n.P.e.&._ 0 a.i.i.h.G 3 8 V :.:.` b 6 4 < % < < Y J ! W U E W :.Y b n 5 5 z Q 6.H.w.-.| w.N.0.",
"r O u g.j...I  .I ) p 1 k.xX8X{ / X.n.V.V.O.r V.*.T.P._ 0 8 D 5.4.@.l < 5 < % , < ` [ ] L H W >.s.[ C C 5 < 5 m [ J.H.w.w.N.J.B.",
"a O i D.z.O. .O.X.D q * o.4X(.u / ) E._.+Xf.i j.c.oXk.' t e H 4.:.@.7 , < 4 % , l 9.8.X.L U Q 0.K.6.x z 5 < l m ~ M.J.w.N.w.C.J.",
"a O i v.f.a I =.F e : = g G.Z.s  .2.V.D.[.=.q x.:X).i.H y V P >.[ ] z 4 l 5 & < C H.B.5.2.5.>.C.R.4.x z l 5 m [ 3.B.[.J.w.9.M.w.",
"q O i =.O.p ( ( e 1 # $ p q.H.f  .X.V._.+Xf.: x. Xn.G _ e c U <.4.s.! b n c 1 N ] R.K.A.A.'.N.'.R.4.Z E m z x E 3.'.%X'.J.J.H.H.",
"$ O i  .p.I  .G 3 * O * ..f.v.f O.5.`.>X%Xf.* Z.R.K.*._ w c @.B.H.A.[ M ! ] : L 4.'.@X X|.9X'.4X4XJ.<.[ R B B [ 9.N.J.J.C.C.[.2X",
"+ + i O.%.I I ) y * @ * q.D.Z.s $.m.R.[.@XZ.9 U. X>XP.X.D H n.[.R.J.[ K Y 4.: J 1.C.'.[./.eX X4XuX@XB.] Q B R 3.w.b.<.C.J.'.4X9X",
"+ O  .%.X.( a X.F q $ ; %.G.n.u } b.H.S.[.Z.: P.#X5XP.*./ ) Z.@XA.B.[ ~ ] 8.> c [ M.9.M.u.4XR.2XeX@X0.[ ~ Z R 9.J.@XE.E.'.'.[.4X",
"$ O { %.I ( ( O.H p * ; %.S.v.d O.7.K.A.R.Z.> |.8XuXU.Z.*.i.F.4XU.G.1.~ >.6.9 7 W '.C.M. ./.H.K.@X'.6.;.Z m E 9.E.>X%X%X@X'.J.@X",
"; % #.n.f.h.$.O.I i : r v.S.h.s 7.m.^.G.@X.Xd =XuXkX|.|.i.@.s.#Xl.H.[ ~ K [ 9 b R B.M.3./ $.b.8.J.M.3.] x m Q 3.'.4X%X[.`.[.'.%X",
"> t $.G.G./..X( T i > > v.Y.} d.m.S.).S.@X:Xf Y.eX3XL.8X+.<.9.M...8.! Q M K 1 6 m ~ 1.3./ a s.A.'.B.M.1.C Q [ M.J.4X4XK.K.'.@X4X",
"{ o.{._.c._.(.p F y q 9 D.}.u Q.%X`._.(.#X%X/ |.fX3X;XuXi.M.M.N.' :.C B b W 8 8 m Z Q [ P d N.b.J.C.M.0.P Q >.J.'.#X9X$X[.J.%XuX",
"f.l.qXoX$.D.Z.p F y 9 p Z.F.> XX+XV.3XiXqX!.y.l.eX>X;XuXi.b.b.K.+.a.! W C ;.w c Z x x R N t 0.w.H.B. X+X:.[ 1.C.J.].2X9X@XE.4XeX",
"E.W.dX;Xf.D.^.o.y q 1 &.].j.> !.+X XqXhXdXr.} i.>X:X).uXi.;.] K.+.n.W C b Q n 8 z 4 5 m m 0 [ 3.0.S.'._.] ~ >.N.J.K.2XqX%X'.4XqX",
"(.c.qXD.j.2X}.g ) a = j.S./ - .X5X3XfXnXtX{ ' i.9X4XU.}.G W ! G.' Z.C C b ] b 7 z 5 l B ~ e >.0.9.m.R.R.! B ] 9.w.S.$X%X+X].9X5X",
"(.Q.qXx.f._._./ V.f.: j.^.p - oX2X2XuXNX6X} u.&.>X+XF.c.y L 4. X/ a.C K n [ J 7 z 5 b Q E w P [ 9.m.>X].;.E ~ 9.C.T.+XC.+X.X3X2X",
"5XXXiXg.j.OX2Xi.(.W.9 j.^.> u <X2X^.5XnX*X} i.{ >XJ.7.$.t ] 4.%X+._ N B c <.U 4 l 5 z x x c x Z B.Z.9X9XB.1.[ 2.N.K.%X].9X<X5XeX",
"iX6XdX&.{.wX2Xg.U.z.: l.z.* > 5X2X^.`.zX~.y.i.g H.N.7.#.i [ X.qXU.a.M l 8 [ _ 4 5 5 x z z c z B B.` }.9XR.9.1.>.1.M.4X3XqXqX>XwX",
"hX<X7Xp./..X/.} T.i.= U.z.@ s uX^.5.7.2XI.u.z.G 2.2.4.u.i [ ` K._ a.C b k Y G 5 6 4 R m l < < C s.A.>X5X].0.3.B.0.B.3X8XpXpXoX>X",
"jX6XXX .Z.).F.O.T.o.* z.z.$ d .Xq.v.m.G.d.i.z./ 5.w.%.u.> -.-.M.F @.[ b 5 C c 8 b 5 E B m 6 < x C R.nXpX:XB.! B.'.:X8X8XfXfXY./.",
"3XXXD.O.F..XP.#.}.o.* p.p.: d  X%.q.b.7.} f.g. .C.q...O.> 7.Y -.G p.m.n 8 P w , c P ~ W Q k w x x U.kXkX>Xs._ s.>XuXjX8X9XeXU.k.",
"W.x.(.j..X.X).O.Z.} 0 v.&.& { 7Xv.,.q.=.e.{.i.p N.X.U =.u /.5.Y V z.S.K c :.y , 5 K 0.<.Q 7 w l B 4.:XuXR.! 6.A.].4XpXeXwXeX/.y.",
"j.(.8X.X3X.X#Xp.T.e.t 7.+.3 } tXY...G.{.L.3Xu.0 2.-.T p.s U.8.8.i.|.T.a.V a.V < 6 -.N.M.W b b l [ Y G.#Xs.B 9.K.`.$XfXkX9X9XU.{ ",
"}.XX7X1X1X#X9Xz.A.j 3 n.+.2 y.9X^.%.G.<X~.1X%.p ,.8.f.Z.s j.q.J.F.=X+XA._ a.P < 8 m.].M.~ W B L s.` 3XpX Xs.B.[.`.$XfXkXpXuXv.a ",
"OXc.(.OX9X5X9Xl.=.d q n.y.1 k.nX7XZ..XqX&X8Xj.o.D. Xh.Z.s P.S. XU.U.T.n.H a.s.8 w m.].6.9.;.R 1.3.4.;XzXeXR.J.>XH.b.4XfXuX4Xs.y ",
"W.g.j.(.3X2X}.$.T.o.p D.g & I.ZXnXtXCXCXrXsXx.e._.[.F.tXr.,X8X:XF.Y.+Xp.D p.s.k w A.R.b.E.;.B R 3.] N.eX9X_ >.].N.6.`.uX4X].4.p ",
"c.x.W.5XOXOX(.z.5Xg.y.8X .& ~.GXFXDXFXAXrXVXQ.y.dXhX6XlXt.,X4XuX#X;X8XY.G H K c w U.].[.E.6.J x Q K 6.>X XJ [ B.B.-.$XqX[.H.X.` ",
"d.<XXXtXOX2X2XW.hXk.P.pXi.& !.HXDXSXZXCXaXVXk.e.NXpX{.gX&X&X).3X).#X8X=X_ n c 5 e F.).`.C.w.L l M k 4.>XR.C P 8.w.L ).4XV.<.) 5.",
" .#.P.0X(..XwX0XhXy.Q.pX#.* *XHXbXgXhXyX,XVXL.y.wXi.+.Y.r.j 7.@X}.eX9X|.( J n c K T.;X#XN.2.^ S M k P s.>.K c 4.8.Y b.`.T.].7.G.",
"l.l.P.7XoX0XkXNX=Xr k.pXi.i 6XCXvX*XgXrXrXVX6Xd.F.V ..) ( g a.9X].iXfX8Xo.N c / P U.1X7XG.w.<.! N N K K ! [ b ] m.^ 6.`.].[.@.Z.",
"gXCXsXgXxXZXZXDXI.% y.8X/ f lXCXZXvXAXcXvXVXyXy.n._ P T X.o.K.9X3XnXBXlXh.Y n H _ U./.}.%X6.^ L _ K N :.` ^ M J 7.,.5._. XG.O.7.",
"xXDXcXCXmXVXDXSX|.y h.U.: j vXVXbXtXbXhXbXnXgXu.Y.7.I X.4.} %XhXpXMXvXbXF.` J D W }..X}.[.2.^ W ] ] N 6.] J 5 b U 7.`.[.`.`.n.#X",
"sXDXcXCXFXCXDXDX,Xo.c.}.d r.BXSXnX(.A.|.7X;XpXo.7.p =.A.7.} ;XnXbXMX6XyXz.F.H 2 Y ).;X>X[.q.-.-.-.:.K ] A k 7 J T A.>X[.R.4X2X5X",
"mXFXgXCXGXCXHXGXrX#.O.<X} ~.BXVXlXp.7.2XhX<X(. .p.e *.T.m.h ;XmXpXvX6X-Xp.3X' & ( `..X.XS.7.5.M.w.q.^ Y n J Y 7.%.[.].`.+XOX#X4X",
"BXVX!.yXVXVXGXSXQ.p f.lXI.t.xXjX7X+.Z.5XdX5XOX+.h.T a.^.T.} U.hXyXMXmX/.+.yXl.1 ) ^.}.`.].2.>.K.E.7.` 6.P -.6.V.m.[.'.^.2X2X5X5X",
"sX<Xg.l.0XNXNXxXu.9 g.kXI.r.qX5X.XZ.G.1XqXjXqX&.+.y G (.tXe.).hXhXBXmX-XU.bX=Xy v.#X$X(.:XA._ 7.5.,.P 5.v.8.q.b.7.G.#X4XdXdXdXwX",
"0X<Xu.j.dXhXdXzXW.i d.fX~.~.uX;X_.n.G.4XdXtX0X=.+.D ..5XnXk.Q.lXhXAXMX=XU.NX=XG n.+XOXY.8X+XT ,.] _ w ,.:XG.`.m.D.>X5X4XkXfXuX9X",
"tXOXg.Q.dXXX7XzXQ.h l.<XQ.,X7XoX;X:X].;XhXlXpX*.%._ ..c.9Xy.k.nXpXVXNXpXY.bX-X_ X.T.wX2XwX5XO.T Y D 5 ) #X^. X9X9X5X9X8XfXoX;XG.",
"6XXXXX0X0Xx.XXdX|.f d.3XQ.~.7X{.8X9X:X:X7XbXhXz.7.( v.a.}.u.d.xXsXVXnXpXY.gX|.( ) D.qX9X5X_...F Y U _ +.2X5X5XiXdX3X$XeXfX0X8X^.",
"*X~.6X6XOXx.{.XX|.i k.5XOXl.f.x.:X1X_.}.4XtX6Xj.^.' @.A.(.!.1XVXnXZXnXlX<XjXOX..4._.eXpX3X+XU P Y :.K.[.5X4X#XfXNXeX#XuXiXxXjX7X",
"tX0XsXOX(.(.(.OX=Xi x.<XP.u.=.j.7X3XG._.3XzX;Xy.;Xg.) p.j.2XdXDXVXSXSXNXtXyXx.p H +XpXzX9X^._ U ` ,.b.S..X$XS.9XMX1X$XiXiXmXnXqX",
"0XsXlXOXj.(.f.W.,Xf }.<X} f.Z./.iXpX.X#X7XpX1X#.;X{.I %.Y.qXpXBXSXFXFXBX0XsXz.y  .;XnXnX8XA.H U :.H T 7.2XuX[.+XnXpX:XuXuXpXiXXX",
"sXbXgX0XW.f.f.(.*Xd.7X<Xo.h.h.{.7XtX(.;XfXjX;Xg /.7XG.D..X7X:XyXSXFXFXSXiXbXF.G Y.dXMXVXqXa.8 4 w F ,.X.#X9X#X#XnXNX;X8XiXiX!.c.",
"sXmXsXOXW.(.W.(.7XOX7XXXh j.j.{.7X7X/.qXNXhX;Xa l.qXOX).#X8X8XNXFXFXDXVX6XvX6Xi.5XjXmXmXiX*.< & < U S.D.OX9X9XfXbXnXOX:XlXjXiX=X",
"tXgX6XOXQ..Xj.f.c.x.W.P.a f.D.XXlXzX1XuXnXuX}.g P.lX3X}.}.7XqXZXGXGXSXZXtXAXcX!.VXZXMXMXBX}.o.0  .X.q.^.8X8XuXxXCXCX2X.XnXbXtXMX",
"XXsXOXOXx.j.h a i  .#.&.h j.(.XXnXnXdXjXpXOXj.I P.nXqX.X+X;XqXZXHXFXDXFXBXHXAX!.FXGXSXZXZXhXoXW.;XA.v.S._.2XqXxXgXCXfX3XzXmXgXCX",
",X,XOXXXW.j.#. .t r g #.{ x.W.,XVXNXzXkXdX2Xc.g g.hX1XOX(.OX0XVXHXHXFXHXCXHXSX,XFXFXZXCXVXVXgXzX0X(.oXG.G.[.n.;XcXBXzXfXxXVXBXBX",
"0X6X,XW.{.OXf.g g h #.#.x.x./.0XVXNXkXdXlX0X;X&.OXuX)./.}.1XlXSXHXHXHXHXBXHXVX*XDXFXMXVXFXDXSXVXgX6XoX`.%.G.%.j.xXZXlXzXmXAXcXcX",
"0X0XXXW.W..X{.#.x.j.o.o.OXOX<XsXSXNXNXVXNXlXqXZ.7XqXD.c.;XiXbXHXHXHXHXHXvXFXZX=XDXSXpXbXGXHXGXSXmXgX(.G.X.*.n.=.tXSXjXhXCXHXcXAX"
};
