/* XPM */
static char *_fda7bf8c302474ae307b559381757d4xKfePMl2tuXS4dd7[] = {
/* columns rows colors chars-per-pixel */
"64 64 105 2 ",
"   c #050404",
".  c #0B0605",
"X  c #0A0906",
"o  c #090708",
"O  c #0D0C0B",
"+  c #110A05",
"@  c #1C0E05",
"#  c #110F0D",
"$  c #1D1006",
"%  c #12110E",
"&  c #1B120D",
"*  c #1E190C",
"=  c #110F10",
"-  c #151412",
";  c #191614",
":  c #1A1816",
">  c #1A1718",
",  c #1D1C1A",
"<  c #231205",
"1  c #2A1505",
"2  c #2E1907",
"3  c #21150D",
"4  c #2D1608",
"5  c #241D0D",
"6  c #2F1908",
"7  c #341703",
"8  c #341A06",
"9  c #391B06",
"0  c #351C0A",
"q  c #391E0A",
"w  c #221611",
"e  c #241913",
"r  c #2B1C12",
"t  c #211F1D",
"y  c #2B1F1A",
"u  c #36210D",
"i  c #3C210C",
"p  c #372D0F",
"a  c #22211E",
"s  c #2C221C",
"d  c #362214",
"f  c #3D2411",
"g  c #372F11",
"h  c #31251D",
"j  c #3A2718",
"k  c #32281F",
"l  c #3B2B1D",
"z  c #3B3115",
"x  c #211F20",
"c  c #252422",
"v  c #292725",
"b  c #2A2926",
"n  c #2B2728",
"m  c #2D2C2A",
"M  c #322721",
"N  c #332A25",
"B  c #3A2D22",
"V  c #322E2C",
"C  c #382E2B",
"Z  c #3F3227",
"A  c #32312E",
"S  c #3B312A",
"D  c #312F30",
"F  c #353331",
"G  c #393634",
"H  c #3C3936",
"J  c #3E3B39",
"K  c #41230D",
"L  c #432610",
"P  c #462814",
"I  c #423511",
"U  c #423B35",
"Y  c #423D3B",
"T  c #484036",
"R  c #45413E",
"E  c #464141",
"W  c #494343",
"Q  c #494443",
"!  c #4C4643",
"~  c #494344",
"^  c #4A4544",
"/  c #4C4646",
"(  c #4F4946",
")  c #4B4A48",
"_  c #4F4A48",
"`  c #514D47",
"'  c #504A49",
"]  c #534E4B",
"[  c #524D4C",
"{  c #554F4E",
"}  c #56504D",
"|  c #58534E",
" . c #575350",
".. c #565452",
"X. c #5A5351",
"o. c #585451",
"O. c #5B5655",
"+. c #5C5755",
"@. c #5F5A57",
"#. c #5F5A59",
"$. c #605B58",
"%. c #615D5B",
"&. c #64605D",
"*. c #666160",
"=. c #686260",
/* pixels */
"; & & & & & & & 3 w w w w e e w w e e e w e e e e e e w w e e e e e e e e e e e e e e e e e w w w w w w w ; ; ; ; & & & & & & % ",
"+ & s y y y y y t y y s s s v N N N N C C C C C C S C C N N N M s N C C C C C S C N N N N N N N N N N v s v M v v c c s s a ; . ",
"X n ( Q Y Y Y E E R Y A n Y ! ' o.@.@.o.W o.&.&.=.*.%.o.] } %.o.Q +.$.%.%.%.@.O.O.O.O.O.+.O.} X.X.} { _ ( ' } } } ] ' _ ' ( A . ",
". n Q W E ~ ^ E Y H , X - G G c Y o.+.{ t F @.O.#...R n , V o. .( @.@.@.) A a , t m G E { [ n G ' Q Y J _ [ [ [ [ _ E J J ( A . ",
"+ n ^ / ^ / / ^ A %   o v J b O V X.O.+.Y ; A V Y v # X O V  .[ ( $.%.o.c X . . . O F , ^ [ , : J c O ; R ] [ ' ( H , O , E A . ",
". c E ^ ^ / ' E - - , O V Y b X F  .O.O.X.v O - : - ; X v ^ O.' Q $.%.} , X O O : c E , _ ^ - t A X   X A ] [ ( m O   O V ^ F . ",
"+ V E ^ / _ ] c - H m - J J ,   v ] / G { F   X O b c = H  .O.E J @.$.o.F m a - Y [ E , _ m O a a X ; X , ^ [ m O - X - F E G # ",
"+ F W / ' [ Y % F _ m ; J , O . ; ^ E , c v   O X m c - E  . .F A  .@.O.[ _ a , [ O.Y ; E , % v - ; F ; O G H O ; v X - F E J - ",
"+ F E ^ / _ m # J ^ c : E :   O # H ( J ; X   - X v , - Q  .' t n _ +.O.O.' : a _  .H ; F , : , O a J b O b , X b b   - A Y H - ",
"+ V R E ^ Q v X c F O > R :     O F E ( H O X , X ; : - Q [ Y : c E o.O.X.] , , ^ _ F - t c a ; O a J F % c - X D v   - m J F # ",
". n Y E E R V O X ; o , F O : O   b v n V O O v O X O ; E _ G ; , m ^ X. .[ c ; R _ G - - F c - X : H H ; b -   , c   ; A G V . ",
". m Y Y E E H a   . X a c O F c   : , X O . O F c     ; Y _ A ; , v G [ [ ] m - J [ H O - E a - O O A H a J t   X -   , G J V . ",
". m Y Y E E E J : X O v - , J n . % F c O   = H J -   # F _ J , , v m E ( [ A - Y _ J O t _ a : ;   , b m ( F O       t H Y V . ",
". n Y Y Y J E E H : - F , F J F # - R E V ; , Y _ G #   a ^ ) c , v A Y ^ _ m % R _ G O n _ , , b   X O F Q J ,       , G H m . ",
". n J Y V , J R J H V R H G A > , F ^ ^ H m G ^ _ _ F - c ^ J , : b G R R E , ; E _ G O G ^ ; : G - X , J E Y V X     c F F m . ",
". m J H F - t H H J F m c - n O X c J E , v ) G J E H F H E Y c ; v F H ; m v b ( _ Y t Y W , c E G A Y Y Y J H :   O n F F n . ",
". m J H G n O , m m - X - X m n X o c G = F E - v v t J Y E E b , v b v X c b : H ^ Q J / ^ Y Y J G F F Y J J H V ; c F F F n X ",
". V H H H G t X , = = X O X m J ,   O c O G n o , , , Y Y E Y v a m m ,   , # O F E m V E E Y c O O X X m G n n m m A F F F n . ",
". V J J G F m O - O , O O   n m -   O c O n - X , ; > Y Y Y G a , m H ,   ;   O F Y , X c V c O         c a     o : n A F A n O ",
". m G F m - , O - O , X - o : O     ; n O - - - ; = - J E E J , - v m :   X   X A R H : X O o . . O   X a %         - v m A n O ",
". n F F A :     - X : X ;   O     - m m X X v - - O - F Y Y G - - c c ;       X n m v A :         - X X ,   X ; O     ; m A n O ",
". b F F A n -   = o - O ;   O     : m v   - F - - X # F Y J m % : m A ;   # -   c c X ; c X O -       O ;   : F v X   X c A m O ",
". b F A v , : X ; O   X -   > O   # c :   , D = - o O A Y G c - - m A ;   t ;   a H n O X   - n O     O -   c F A :     : m m O ",
". n F A ,   - O ; ,   X -   , ,     : -   , n O : X   n R J a - - m F v t m ;   , G A v O   - F n X   O -   ; n b :     ; m m O ",
". m F V v O     X c O X -   , m -   O O   , b O a O   a R R n - - a A F F G ,   a m % - -   O F H ,   O ;     X X       , m m O ",
". m F A A n :   . v , O >   t F b O   O   , F m A %   a J J G , : b F H H H F c F G v %     O F G c   O c X           - c A m O ",
". b m m A F F a ; m F V m : n F A , O , ; b F H G c ; F J J G c - n H H H H H F H J G A a O : G G x   ; V ,       X - c m V m - ",
". v m m A F F m m F F G F v m A A v , m m A F F G A b G H H F : - m H J H H H H H G G F G m A G G v O v F n : , t m c b m m m ; ",
". v m m A F F m m F F G A v V A V m v V A F F G G G F H J H F ; - V G J H H H G G G F F F V F G G F v F F b c m m m b b m m m : ",
". v m m A A A V V F F F A m A A V V V F G G G G G Y } } ] H F , % m F ( | } E A F F F F F F F G G G G F V n b m m m m m m m m : ",
"# n m m V m m A F F A V V V V V V V V V V V F F V Y { } ] F b ; % b A ( } } R V F F V V V V V F A V V V V m m V V m m m m m m : ",
"- m m m m m m A A V V n v n m m m m V m b v V V m G ( ` Q V b : # c m R ` ` H n V V V V m m V V V V V V m v b V V m m m m m m , ",
"; m m m m m m V V V M s s h h k M M M h s s s M h B U T S M s 3 3 s h S U U C s M M k k M M M M h s h h s s b V A n m m m m m : ",
"- m m m m m m m m s 0 q i i i i K K L L L L L P P P l Z f f f f f f f d B B f i f f f i f i i 0 8 0 0 q q q h m m m m m V m m ; ",
"O b m m m m m m b s 8 9 9 9 9 9 9 q K K q K i K K K j Z u i i i q q q q B l 0 q q q q q q q q q q 0 8 8 8 0 s v n m m m m m m - ",
"O v m m m m m m v e 8 9 9 8 8 9 9 9 q 9 9 8 9 q q q d B 2 8 2 8 4 2 6 6 k k 8 q 0 0 0 q q 0 0 0 8 1 < 1 1 4 r c b m m m m m m - ",
"O v m m m m m b a w 4 7 7 8 8 8 8 8 8 9 8 8 0 0 8 7 r h < < 1 1 1 1 1 1 s s 1 4 6 8 2 8 6 6 6 4 < @ @ < 1 1 3 t c n m m m m m - ",
"O v n m m m m v a ; < < < < < < < < < < < < $ $ @ @ w b w e 3 & & & & & s s 3 $ $ < < < < < < $ @ @ @ @ @ @ ; t c b m m m m n - ",
"O b b b n n b c , : % # O O # # % % # # O O O . X - , a c c a c a a a t a a a # X O O O # # # % % % # # # % ; , a c b n n b b - ",
"O v b b b b v a : ; - # O # % - - - - % # O O O O - % O X O O X O O O O O O X O O O O O # % - - - % # O O = - : , c b b b b b - ",
"O b v v v v c , : ; - % % % - - - - - % % # # # O ; , : 5 5 *   . O O ; , t ; # O # # % % % - - - - - % % - - ; : a v v v v b ; ",
"O b b v c c c , : : ; - - - - - - - - % - % % - % : a t g I p X X # % , c c , % % % % % % % - - - - - - - - ; : : t c c c v b : ",
"O b b b v c c t , , : : ; ; ; ; - - - - - - - - - , c a z I g O O - - a v c t - - - - - - - - - - ; ; ; ; : : , , a c c v b b : ",
"O v b b b c c c a , , : : : : : : : : ; ; ; ; ; - ; ; - * w ; O O - - : , , : ; - ; ; ; ; ; ; ; : : : : : : , t a c c v b b b : ",
"O c b b b v c c c c c c a a a c c c a , , , , , : ; - - - - - O % ; ; ; : : : : : : , , , , , a a a t t t a c c c c c v b b v : ",
"O c v b b v v c c c c v v v v v v b c c a a t , , , : - - - - # - : : : : , , , , , t a a c v v v v c c c v c c c c v b b b v : ",
"% c c c v v v v b b b b n n m m m n b v c a t t t , : ; ; ; ; % - , , , , , a a t t t a c v b n n n n b b b v v v v v v v c c - ",
"% c c c v b v v b b b m m m m m m m n b v c a a t , , : : : : - # : a t t a a c a a a c b b n m m m m m m n b b b v b b v c c % ",
"- c c c v b c c b b b m m m m m m n n b c c t t , , , , : : : ; ; , , , t a a a , t a c v b n m m m m m m m v b v c v b v c c - ",
"- c c v v c c c c c b b n n n n n b b v c a t t , , , , : : : - ; , , , t t t t , t t c c b b n n n m n n b v c c c c v v v c ; ",
"% c c v v c a a c c v b n n n n n b v c a t t t , , , , , , , ; - , : , , , , , , t t a c v b b n n n n b b v c c a c c v v c : ",
"% c c c c c c c c c v v b b b n b v c c a a t , , , , , , : : - - : : , t , , t , , a a a c v b n n n n v v v c c c c c c c c ; ",
"- A F F F F F F F F G H H H H H H H G G G G F F A V m m n n b , , V A A F F F F A A A F F F F G H H G G G G F F A A V m V m m - ",
"- H Y Y Y Y R R R R R R R R Q Q Q Q E E Q E R R R Y J J H H H v t J Y Y Y Y R R R R R R R R Q W Q Q R E E R R R R J J J H H H : ",
"; G Y Y Y Y Y Y Y R R R R R R R R R R R R R R R R Y Y Y J H Y b t H Y Y Y Y Y Y R R R R R R R R R R R R R R R R Y Y Y Y J H H t ",
": F H H J Y Y Y Y Y Y Y Y R R R R R R R R R R R Y Y Y Y Y Y Y n a H H H Y Y Y Y Y Y Y Y Y R R R R R R R R R R R Y Y Y Y Y Y U t ",
"a F G H H U U U Y Y Y Y Y Y Y Y Y R Y R R R Y Y Y R Y Y Y Y Y n a G H H H U U U Y Y Y Y Y Y Y Y Y R Y R R R Y Y Y Y Y Y Y Y Y t ",
"a F G G H H H H H U H U Y Y J Y Y Y Y Y Y Y Y Y Y Y Y Y Y Y Y n a F F H H H H H H U H Y Y Y U Y Y Y Y Y Y Y Y Y Y Y Y Y Y Y Y a ",
", A F F F F H F H H H H H H H H H Y Y Y Y J Y Y Y Y U Y Y Y Y n t A F F F G H F H H H H H H H H J Y Y Y J Y Y Y Y Y Y Y Y Y J c ",
": A A F F F F F F F F F G H H H H H H H H H H J J J H H H H H n t A A A F F F F F F F G H H H H H H H H H H H J J J H H H H H c ",
"; A A A A A A A A F F F F F F F F F F F F G H H G G H H H G H c , A A A A A A A A F F F F F F F F G F F F G H H H G H H H H F c ",
"; m A V A A A A A A A A A A A A A A A A A F F F F A F F F F F a , V V A A A A A A A A A A A A A A A A A A F F F F F F F F F A a ",
"- b n n m m m m m m V A m m V V A A A A A A A A A A A A A A A a , m n m m m m m m m m A m V V V A V A A A A A A A A A A A A A a ",
"- a a a a a a a a a a a a a a a a a a a a a c c a c c c a a a : ; a a a a a a a a a a a a a a a a a a t t a a a t a a a a a a : "
};
