/* XPM */
static char *_42d83e1972f4ec492909f16721137756N7laF2XwvjqpWfy[] = {
/* columns rows colors chars-per-pixel */
"64 65 156 2 ",
"   c #020202",
".  c #010101",
"X  c #090909",
"o  c #AEAEAE",
"O  c white",
"+  c #A0A0A0",
"@  c #040404",
"#  c black",
"$  c #6D6D6D",
"%  c #DADADA",
"&  c #202020",
"*  c #070707",
"=  c #ACACAC",
"-  c #9D9D9D",
";  c gray42",
":  c #D8D8D8",
">  c #1D1D1D",
",  c #ADACAD",
"<  c #9E9D9E",
"1  c #6A6A6A",
"2  c gray2",
"3  c gray68",
"4  c gray62",
"5  c gray11",
"6  c #444444",
"7  c #434343",
"8  c gray35",
"9  c gray85",
"0  c gray82",
"q  c #555555",
"w  c gray28",
"e  c #B1B0B1",
"r  c gray94",
"t  c gray45",
"y  c gray26",
"u  c #F3F3F3",
"i  c gray95",
"p  c #F6F6F6",
"a  c gray97",
"s  c #F4F4F4",
"d  c #FDFDFD",
"f  c gray98",
"g  c #EFEFEF",
"h  c #EEEEEE",
"j  c #FEFEFE",
"k  c #EFEEEF",
"l  c gray93",
"z  c gray23",
"x  c #3A3A3A",
"c  c #393939",
"v  c gray22",
"b  c #5F5F5F",
"n  c #E7E7E7",
"m  c gray73",
"M  c gray77",
"N  c #E2E2E2",
"B  c gray6",
"V  c #C8C8C8",
"C  c #7C7C7C",
"Z  c #8D8D8D",
"A  c #BCBBBC",
"S  c gray4",
"D  c #101010",
"F  c #C6C6C6",
"G  c gray49",
"H  c #BBBBBB",
"J  c #0B0B0B",
"K  c #101110",
"L  c #111111",
"P  c gray55",
"I  c #191919",
"U  c gray81",
"Y  c gray53",
"T  c gray1",
"R  c gray58",
"E  c gray7",
"W  c gray54",
"Q  c #A7A7A7",
"!  c gray96",
"~  c #DDDDDD",
"^  c #929292",
"/  c #8B8B8B",
"(  c #939393",
")  c gray88",
"_  c #A2A2A2",
"`  c #898989",
"'  c #C3C3C3",
"]  c #C1C1C1",
"[  c #D0D0D0",
"{  c #F9F9F9",
"}  c #CECECE",
"|  c gray76",
" . c gray78",
".. c #0E0E0E",
"X. c gray5",
"o. c gray12",
"O. c #B6B6B6",
"+. c #1B1B1B",
"@. c gray90",
"#. c gray24",
"$. c gray67",
"%. c gray61",
"&. c #6C6C6C",
"*. c #ACABAC",
"=. c gray3",
"-. c #1E1E1E",
";. c #AAAAAA",
":. c #131313",
">. c #252525",
",. c #B9B9B9",
"<. c gray8",
"1. c gray56",
"2. c #E6E6E6",
"3. c gray25",
"4. c #CDCDCD",
"5. c gray80",
"6. c #CBCBCB",
"7. c #D5D5D5",
"8. c #CFCECF",
"9. c #F1F1F1",
"0. c #DFDFDF",
"q. c #CACACA",
"w. c #828182",
"e. c #808080",
"r. c #807F80",
"t. c #818181",
"y. c #9F9F9F",
"u. c gray50",
"i. c #9B9B9B",
"p. c #7E7E7E",
"a. c gray9",
"s. c gray52",
"d. c #BCBCBC",
"f. c #0C0C0C",
"g. c gray74",
"h. c #414141",
"j. c gray40",
"k. c gray91",
"l. c gray",
"z. c #484848",
"x. c #4E4E4E",
"c. c gray89",
"v. c gray38",
"b. c #F5F4F5",
"n. c #FAF9FA",
"m. c #F8F8F8",
"M. c #F4F3F4",
"N. c #3C3C3C",
"B. c gray32",
"V. c #D7D7D7",
"C. c gray30",
"Z. c #060606",
"A. c #AFAFAF",
"S. c #6F6F6F",
"D. c gray86",
"F. c gray13",
/* pixels */
"                                                  . X o O + @ . . . . . . . . . . . . . . . . . . . . . . . . . # $ O % & # . . ",
". # # # # # # # # # # # # # # # # # # # # # # # # # * = O -   # # # # # # # # # # # # # # # # # # # # # # # # # # ; O : > # # # ",
". # # # # # # # # # # # # # # # # # # # # # # # # # * , O <   # # # # # # # # # # # # # # # # # # # # # # # # # # 1 O : > # # # ",
". # # # # # # # # # # # # # # # # # # # # # # # # # * = O -   # # # # # # # # # # # # # # # # # # # # # # # # # # 1 O : > # # # ",
". # # # # # # # # # # # # # # # # # # # # # # # # # * = O -   # # # # # # # # # # # # # # # # # # # # # # # # # # 1 O : > # # # ",
". # # # # # # # # # # # # # # # # # # # # # # # # # * = O -   # # # # # # # # # # # # # # # # # # # # # # # # # # 1 O : > # # # ",
". # # # # # # # # # # # # # # # # # # # # # # # # # * = O -   # # # # # # # # # # # # # # # # # # # # # # # # # # 1 O : > # # # ",
". # # # # # # # # # # # # # # # # # # # # # # # # # * = O -   # # # # # # # # # # # # # # # # # # # # # # # # # # 1 O : > # # # ",
". # # # # # # # # # # # # # # # # # # # # # # # # # * = O -   # # # # # # # # # # # # # # # # # # # # # # # # # # 1 O : > # # # ",
"# # # # # # # # # # # # # # # # # # # # # # # # # # 2 3 O 4 # # # # # # # # # # # # # # # # # # # # # # # # # # # 1 O : 5 # # # ",
"6 7 6 6 6 6 6 6 6 6 6 6 6 6 6 6 6 6 6 6 6 6 6 6 6 7 8 9 O 0 q 7 7 6 6 6 6 6 6 6 6 6 6 6 6 6 6 6 6 6 6 6 6 6 6 7 w e O r t y 6 6 ",
"u i u u u u u u u u u u i i u u u u u u u u u u u u p O O O a u u u u u u u u u u u i i i u u u u u u u u u u u s d O O f i u u ",
"g h g g g g g g g g g p j O O i g g g g g g g g g g g h h h k g g g g g g g g g g u O O O a g h h h h h h h h h h l h h g g g g ",
"z z x x c c c c c c v b n O m y c c c c c c c c c c x c c c c c c c c c c c c c c 6 M O N 8 c x x x x x x x x x x c x z z z z z ",
"# # # # # # # # # # # B V O C # # # # # # # # # # # # # # # # # # # # # # # # # # # Z O A S # # # # # # # # # # # # # # # # # # ",
". . . # # # # # # # # D F O G # # # # # # # # # # # # # # # # # # # # # # # # # . . Z O H J # # # # # # # # # # # # # # # # # # ",
". . . # # # # # # # # D F O G # # # # # # # # # # # # # # # # # # # # # # # # # . # Z O H J # # # # # # # # # # # # # # # # # # ",
". . . # # # # # # # # D F O G # # # # # # # # # # # # # # # # # # # # # # # # # . # Z O H J # # # # # # # # # # # # # # # # # # ",
". . . # # # # # # # # D F O G # # # # # # # # # # # # # # # # # # # # # # # # # . # Z O H J # # # # # # # # # # # # # # # # # # ",
". . . # # # # # # # # D F O G # # # # # # # # # # # # # # # # # # # # # # # # # . # Z O H J # # # # # # # # # # # # # # # # # # ",
". . . # # # # # # # # D F O G # # # # # # # # # # # # # # # # # # # # # # # # # . # Z O H J # # # # # # # # # # # # # # # # # # ",
". . . # # # # # # # # K F O G # # # # # # # # # # # # # # # # # # # # # # # # # . # Z O H J # # # # # # # # # # # # # # # # # # ",
". . # # # # # # # # # L F O C # # # # # # # # # # # # # # # # # # # # # # # # # . # P O m J # # # # # # # # # # # # # # # # # # ",
"# # # # # # # # # # # I U O Y . # # # # # # # # # # # # # # # # # # # # # # # # # T R O M E # # # # # # # # # # # # # # # # # # ",
"W W W W W W W W W W W Q ! O ~ ^ W / / / W W W W W W W W W W W W W W W W W W W W W ( ) O i _ ` W W W W W W W W W W W W W W W W W ",
"O O O O O O O O O O O O O O O O O O O O O O O O O O O O O O O O O O O O O O O O O O O O O O O O O O O O O O O O O O O O O O O O ",
"' ' ' ' ' ' ' ' ' ' ' ' ' ' ' ' ' ' ' ' ' ' ' ' ' ] [ { O a } ' ' ' ' ' ' ' ' ' ' ' ' ' ' ' ' ' ' ' ' ' ' ' ' |  .g O j % | ' ' ",
"D B ..B B B B B B B B B B B B B B B B B B B B B ..X.o.] O O.+.B B B ............................................B / O @.#...B B ",
"# # # # # # # # # # # # # # # # # # # # # # # # # # 2 $.O %.. # # # # # # # # # # # # # # # # # # # # # # # # # # 1 O : 5 # # # ",
". # # # # # # # # # # # # # # # # # # # # # # # # # * = O -   # # # # # # # # # # # # # # # # # # # # # # # # # # &.O : > # . # ",
". # # # # # # # # # # # # # # # # # # # # # # # # # * *.O - . # # # # # # # # # # # # # # # # # # # # # # # # # # &.O : > # . # ",
". # # # # # # # # # # # # # # # # # # # # # # # # # * = O - . # # # # # # # # # # # # # # # # # # # # # # # # # # &.O : > # . # ",
". # # # # # # # # # # # # # # # # # # # # # # # # # =.= O - . # # # # # # # # # # # # # # # # # # # # # # # # # # &.O : > # . # ",
". # # # # # # # # # # # # # # # # # # # # # # # # # =.= O - . # # # # # # # # # # # # # # # # # # # # # # # # # # &.O : > # . # ",
". # # # # # # # # # # # # # # # # # # # # # # # # # =.= O - . # # # # # # # # # # # # # # # # # # # # # # # # # # &.O : > # . # ",
". # # # # # # # # # # # # # # # # # # # # # # # # # =.= O - . # # # # # # # # # # # # # # # # # # # # # # # # # # &.O : -.# . # ",
"# # # # # # # # # # # # # # # # # # # # # # # # # # =.;.O - . # # # # # # # # # # # # # # # # # # # # # # # # # # 1 O : 5 # # # ",
":.E E :.E E E E :.:.:.:.:.:.:.:.:.:.:.:.:.:.:.:.:.E >.M O ,.& E :.<.:.:.:.:.:.:.:.:.:.:.:.:.:.:.:.:.:.:.:.:.:.:.<.1.O 2.3.D E :.",
"4.5.6.6.6.6.6.6.6.5.5.5.5.5.5.5.5.5.5.5.5.5.5.5.5.6.7.{ O { 7.6.5.5.5.5.5.5.5.6.6.6.6.6.6.6.6.6.6.6.6.6.6.6.6.6.8.9.O j 0.q.6.6.",
"O O O O O O O O O O O O O O O O O O O O O O O O O O O O O O O O O O O O O O O O O O O O O O O O O O O O O O O O O O O O O O O O ",
"w.e.r.r.r.r.r.r.e.t.e.y.! O % Y u.u.u.u.u.u.u.u.u.u.u.u.u.u.u.e.e.e.e.e.e.e.e.u.u.W ) O 9.i.p.u.u.u.u.u.u.u.u.u.u.u.e.u.e.u.u.u.",
"# # # # # # # # # # # a.4.O s.# # # # # # # # # # # # # # # # # # # # # # # # # # . R O ' L # # # # # # # # # # # # # # # # # # ",
"# # # # # # # # # # # L  .O G # # # # # # # # # # # # # # # # # # # # # # # # # # # P O d.f.# # # # # # # # # # # # # # # . . # ",
"# # # # # # # # # # # L V O G # # # # # # # # # # # # # # # # # # # # # # # # # # # Z O d.f.# # # # # # # # # # # # # # # # . # ",
"# # # # # # # # # # # L  .O G # # # # # # # # # # # # # # # # # # # # # # # # # . # P O d.f.# # # # # # # # # # # # # # # # # # ",
"# # # # # # # # # # # L  .O G # # # # # # # # # # # # # # # # # # # # # # # # # . # P O d.f.# # # # # # # # # # # # # # # # # # ",
"# # # # # # # # # # # L  .O G # # # # # # # # # # # # # # # # # # # # # # # # # . # P O d.f.# # # # # # # # # # # # # # # # # # ",
"# # # # # # # # # # # L  .O G # # # # # # # # # # # # # # # # # # # # # # # # # . # P O d.f.# # # # # # # # # # # # # # # # # # ",
"# # # # # # # # # # # L  .O G # # # # # # # # # # # # # # # # # # # # # # # # # . # P O d.f.# # # # # # # # # # # # # # # # # # ",
"# # # # # # # # # # # L  .O G # # # # # # # # # # # # # # # # # # # # # # # # # . # P O d.f.# # # # # # # # # # # # # # # # # # ",
"# # # # # # # # # # # B V O G # # # # # # # # # # # # # # # # # # # # # # # # # # # P O g.J # # # # # # # # # # # # # # # # # # ",
"y y y y y y y y y y h.j.k.O l.z.h.y y y y y y y y y y y y y y y y y y y y y y y y x.F O c.v.h.7 h.h.h.y y y y y y y y y y y y y ",
"b.s ! ! ! ! ! ! ! ! s n.O O O p b.! ! ! ! ! ! ! ! ! s s s s s ! ! ! ! ! ! ! ! ! ! m.O O O n.! ! u u M.s s s s s s u u u M.s s s ",
"g g g g g g g g g g h g g g g g r r r r r r r r r g s O O O u g g g g g g g g g r r g r r g r r r r r g g g g g 9.d j O a g g g ",
"#.N.N.N.N.N.N.N.N.N.z #.N.N.N.N.N.#.#.#.#.#.#.#.#.x B.V.O } C.z N.N.N.N.N.N.N.N.#.#.N.#.N.N.N.N.N.N.N.N.N.N.N.N.3.3 O g &.z N.N.",
"# # # # # # # # # # # # # # # # # # # # # # # # # # Z.= O - # # # # # # # # # # # # # # # # # # # # # # # # # # # ; O 9 5 # # # ",
". # # # # # # # # # # # # # # # # # # # # # # # # # =.$.O -   # # # # # # # # # # # # # # # # # # # # # # # # # # 1 O : -.# # # ",
". # # # # # # # # # # # # # # # # # # # # # # # # # =.$.O %.. # # # # # # # # # # # # # # # # # # # # # # # # # # 1 O : -.# # # ",
". # # # # # # # # # # # # # # # # # # # # # # # # # =.$.O %.. # # # # # # # # # # # # # # # # # # # # # # # # # # 1 O : -.# # # ",
". # # # # # # # # # # # # # # # # # # # # # # # # # =.$.O %.. # # # # # # # # # # # # # # # # # # # # # # # # # # 1 O : -.# # # ",
". # # # # # # # # # # # # # # # # # # # # # # # # # =.$.O %.. # # # # # # # # # # # # # # # # # # # # # # # # # # 1 O : -.# # # ",
". # # # # # # # # # # # # # # # # # # # # # # # # # =.$.O %.. # # # # # # # # # # # # # # # # # # # # # # # # # # 1 O : -.# # # ",
". # # # # # # # # # # # # # # # # # # # # # # # # # =.$.O %.. # # # # # # # # # # # # # # # # # # # # # # # # # # 1 O : -.# # # ",
". # # # # # # # # # # # # # # # # # # # # # # # # # =.= O %.. # # # # # # # # # # # # # # # # # # # # # # # # # # 1 O : -.# # # ",
". # . .                                           . S A.O + @ . .                                               # S.O D.F..     "
};
