/* XPM */
static char *result[] = {
/* columns rows colors chars-per-pixel */
"64 64 104 2 ",
"   c #040405",
".  c #090707",
"X  c #070807",
"o  c #090807",
"O  c #060608",
"+  c #080709",
"@  c #0C0C0C",
"#  c #110E0D",
"$  c #0F100E",
"%  c #11110F",
"&  c #0E0E11",
"*  c #100F11",
"=  c #0F1012",
"-  c #131313",
";  c #191615",
":  c #171817",
">  c #1A1916",
",  c #161619",
"<  c #18171A",
"1  c #17181B",
"2  c #1C1C1B",
"3  c #201A17",
"4  c #211E1C",
"5  c #1F201E",
"6  c #22211E",
"7  c #1E1E21",
"8  c #201E21",
"9  c #1F2023",
"0  c #242323",
"q  c #282724",
"w  c #272825",
"e  c #2A2926",
"r  c #272628",
"t  c #282729",
"y  c #2C2C2B",
"u  c #312E2C",
"i  c #2F302D",
"p  c #32312E",
"a  c #2F2F31",
"s  c #302E31",
"d  c #2F3033",
"f  c #343433",
"g  c #393633",
"h  c #373836",
"j  c #3A3936",
"k  c #373739",
"l  c #393739",
"z  c #3C3C3B",
"x  c #403D36",
"c  c #413E3B",
"v  c #3F403C",
"b  c #42423E",
"n  c #48453F",
"m  c #3F3F41",
"M  c #413F41",
"N  c #454442",
"B  c #494644",
"V  c #4A4946",
"C  c #464348",
"Z  c #49464A",
"A  c #4D4C4A",
"S  c #514E4B",
"D  c #4F504B",
"F  c #52514E",
"G  c #58534F",
"H  c #4F4C51",
"J  c #514E52",
"K  c #555452",
"L  c #595654",
"P  c #5A5956",
"I  c #5D5C5A",
"U  c #605A56",
"Y  c #615E5C",
"T  c #5F605B",
"R  c #63625E",
"E  c #68645F",
"W  c #656462",
"Q  c #696663",
"!  c #676863",
"~  c #6B6A66",
"^  c #6D6D6A",
"/  c #716E6B",
"(  c #6F706B",
")  c #72726D",
"_  c #6C6E72",
"`  c #757572",
"'  c #797674",
"]  c #777975",
"[  c #7B7A76",
"{  c #7D7C7A",
"}  c #817E7B",
"|  c #7F807C",
" . c #82817D",
".. c #7F8083",
"X. c #858582",
"o. c #898785",
"O. c #868883",
"+. c #898987",
"@. c #8C8D8A",
"#. c #8F908E",
"$. c #92928F",
"%. c #939392",
"&. c #979897",
"*. c #9A9A99",
/* pixels */
"0 w 2 - - 5 2 2 - 5 5 2 2 2 2 5 0 0 6 2 0 6 5 5 0 i e v v 9 y 0 0 5 0 5 6 6 5 2 5 5 5 % $ @ @ @ @ o o @ @ $ % % $ $ @ $ X       ",
"0 w 0 > : 6 2 > 5 5 5 5 : 5 5 5 9 w w 2 5 0 9 9 i j h V v d v h i w h v b p 6 5 6 i 5 % $ $ o $ @ o o $ $ $ ; % $ ; $ @ o X     ",
"w y 6 5 5 5 5 5 6 0 5 5 5 6 5 5 0 t w 5 0 t e y z N z A Z N N v h i v N N v i w 6 h 6 ; % % $ o o o o o @ $ % $ % : % $ @ X     ",
"y w 6 0 6 5 2 2 y y w w 0 w y w y w 0 9 e e y f N j m D D K D v h w h V V v p p i f 6 : % % $ $ $ $ @ o $ ; % $ $ % 5 $ @ o     ",
"y i w w w 0 2 5 0 e t e 0 w w e i 0 e e f d y f z d V J K T K m i w f N V h w i e i 6 : : ; $ $ $ $ $ $ $ $ $ $ % - : $ o X     ",
"i i i w w w 0 w e i w w w i e i d y i f j f y j h h V I T T T C i i N v V h i h y g e 5 > > $ ; % $ $ ; ; % % $ - % - $ $ X X X ",
"j h h y y e w y e y e e y i y h j j f h j j f g w i N W W W T J f v N D D v v v g f p > : : % ; : $ $ % > > $ $ : , : $ $ o   X ",
"j j h i e i w i e 0 w e f i f h f d y h v v z c h v K R P P P P N z N N D v h f y p y 5 5 6 5 ; % $ $ : > 3 > > : - $ @ $ @ X X ",
"v N N i i f i i y 5 0 5 i f h h f y f f j z c c c N J U J S L L N v N v V c f p p u 0 , ; 4 2 ; % % % ; ; 3 4 - % % $ @ X + X X ",
"v N v i i h i g d 0 w 5 6 i i i f y 6 > 4 4 6 6 0 4 u g g u u u w 0 0 0 0 4 2 > > ; # @ @ % > > % % % > > 6 6 ; $ - - @ @ o     ",
"v N j i i f j h h w 6 0 i i i h f e 4 ; ; ; 3 ; 3 3 4 4 4 8 0 8 6 > - % % # # @ # . @ . o @ ; > > > ; ; > > > 4 - % $ + o X   X ",
"N D n f p h h j h i 5 5 i p w h u e 0 ; ; # - # ; y ; . # * @ + @ @     - .             o % 2 > > % > 6 6 6 6 4 - - = $ @   X X ",
"N K V h j h h h h 5 > 5 y i w f s y w - # @ < & 3 y 3 O + - + O . #     , @     .       . # 2 > ; % % 6 3 6 6 4 : - - $ o o o o ",
"N K D h f j f i w > = 5 i h f j f u y * @ @ 8 3 t s s + O 1 & O @ -   @ 2 - +   .       @ # > 4 6 % % ; > > 6 4 : : - - @ + X @ ",
"N D D f i h f h w 5 > 5 e i e v k g s 3 # # t y k l u * + r a 1 * -   & 1 - @ @ - +   . @ # > 2 3 3 6 6 > 6 6 4 > , - $ @ X X X ",
"h h f d h j f p i w w 0 i e i h c c s t 1 2 k k k s t 2 , y M C k 0 @ & 7 , O + ; @ @ @ # ; ; ; ; % % ; % ; 2 2 : , - % @ @ o @ ",
"f z z f p j h h e i i i e e i i i p p y g 8 y , 2 a r +   0 t m J m - & - @ O + * +   O # ; 3 4 3 > ; % ; % > % % : % $ $ $ X $ ",
"v N z i i p p f v f v f e e e w i i f 6 k 1 r * + 7 r   O r = 7 m m 7 & - & O O * O O # ; ; 4 4 3 > ; > > : > ; % % : % $ o X $ ",
"N v f w 0 w w i i e e 6 e i f g v p f w k 7 s & + 7 r     t 7 7 9 k a 7 , 0 * O * + # q 4 - 4 6 4 6 6 6 3 3 5 5 5 % % % $ @ X @ ",
"j j i y i i p f p v v v v v v v g g z f r & y 7 1 a r   O t 7 1 7 t , r 8 y s a s t 8 8 ; ; 0 q 4 4 4 6 3 6 5 5 5 : 5 % $ X X $ ",
"j b n z j j j j v i e w y v v n C c j k y 7 m r t s 0     a a 7 r 7 O 1 y t , 8 t 7 2 2 ; 4 y u 3 > > 3 3 w 6 w 0 2 : : $ $ X $ ",
"A S V n v z b j f i i e i v v g c B c k y t l r a a 7   O r , O 9 7   = 0 r 8 r t 0 t t 3 4 q q 3 > > 3 > 3 3 5 5 : - - $ @ @ @ ",
"n x z j g v N j v e e v v v v v c N c k k m m - 7 a 7 O O t & , e 1     0 8 < * 1 * < 2 4 2 q q 6 6 3 3 > 3 5 > : - = = @ @ @ @ ",
"Y E L F V D F V n v g v v h v n V c c s k k Z r r a r   O r , 7 r 2     8 7 1 & < @   & 3 > e q e i q 6 3 5 3 5 2 : : = $ @ @ $ ",
"E E L S V P K D n n n n n n D n c c x l a t H t t r 9   O a 7 & 2 0     1 1 1 0 r +   @ ; 2 u q u b b g u 6 6 5 2 : : , - @ $ - ",
"E E Y G V T K D P n D v v K T P L V l M t 9 H l k m r O & d = O - 2   @ 5 0 8 r y r 1 , ; 4 g u u g n n j p p 3 2 - - - $ $ - > ",
") [ ^ K D K P P D n v e i D T F G B B M r 7 m k d m r @ & d = O , 1 . @ r 8 7 7 y 9 0 1 4 8 z p e p x n g u p 6 2 : : : - % - : ",
"` W T A D K P T D v v w w n T P L A Z c r 7 d a f l 9 @ = k 7 & , ,   O t r 1 & , @ 1 2 > 3 g g u g g n j 6 e 6 5 $ % : $ @ = , ",
" .I h y j V V D D v v 6 6 v D V S B A M s t m f a k 7 , , f r 7 r 7     7 7 @   %   @ - 3 3 x g e p b b b u e 6 2 > , - = @ - - ",
"~ L f 5 0 h N v n v w 6 i n D D U S V M t 8 Z r r m r & O 8 = + 7 y   @ 7 1 O   %     : 3 3 x g e p x b j u e 6 0 2 > - - - - : ",
"P Y N 6 e z D F v w w i v v n K S B b k - - a a d m r   O r & & 7 t 2 & 1 , & , 5 $ $ $ 3 q x p e q x b j e w 0 2 > : - , - @ - ",
"} ) N p V K K V i v v e v n n D A N c u * * t 8 k m a   O r + O 9 t 8 , 1 & + & : @ @ @ > 3 p b u 6 b b p e w 2 2 - - - - - - - ",
"| | ! n D n n n v v v v N v v D U M l 8 & = r & 7 l t O O r = = d h 1 7 0 &   O * O O + - 3 x b g g n g u e 3 > 3 % : % : > : - ",
"$. .| | | P T D P P D v D v N T P c g < & = r & 1 m t   O t 8 t m a 1 7 r & O O *   O @ , 8 x z g p g u i e 4 > 5 > % : : % - - ",
" .| | | | D T D P ! T D P D K P P M l < & & a & 1 C t & + t m k a y - - , & O O *     @ - 4 j g g g x g i i q 3 5 : % % : - - - ",
"| @.| | | | ! G T ! T ! ! ! D T Q Z k 7 = = d = , M r O O t s k 7 1 O   - & O O & O   @ ; 6 n b u u g u e p e 3 5 : : : - - - - ",
"| | $.#.| ! ! | ! T T | ! T D T W V h 7 & & r = * m 8 O O s m 8 < -     - @ O O & O   + ; q V c g p p p p p e 6 2 - - - : $ = = ",
"| | | | | T T | | | ! D V T T ! ! H z m 7 7 r 7 7 M s , = a M 8 < , + & 1 7 * @ * * + + # 8 x x p g p u e g e 6 2 - = = > : - : ",
"| | | | T T T T | | | | D v P ! ` I z C C Z H H H W J H Z H C M z l l l l s s a t 8 8 4 3 4 q q 6 6 6 6 q u q 3 2 : = : 2 2 2 2 ",
"$.@.@.| | ! | | T T P | ~ V T ! _ A N V C Z W W L R ^ ' +.X.I Q ) ^ _ W A M M c c M s t y 8 e q 6 6 u u q u e 3 : : : 1 2 5 > = ",
"&.@.&...| ( ` | ! T R ) | ) ~ ( T N N b z B S P J H I P W _ R Y Q Q Y Y Y B M M B c l u u u u u q 6 q 6 0 p p w : : , : 2 9 > - ",
"#.#.*.| ] ( ) ~ E T E $.$. .| ( A A S G V B A I I W Y L J H J L I I W W U S B S B B C c x u u e e 6 4 4 6 0 0 0 > - , : 2 2 2 - ",
"..#.&...) ( ) ) ^ ` ) @.@. .| ) F R ~ Q L Y W Y Q Y Y U J S L I Q Q ^ P G B S S J A V L V V x x e 6 6 6 6 > 6 2 2 - - : 5 9 1 - ",
"$.@.| ! ! T T ~ ) ] ^ ] |  . .| F K Y Q U Y R ~ / / Q ' ' ' E R [ ` W Y E G M G L L U L c S x q 6 q 6 q 6 q w 2 5 , - : 2 2 > , ",
"&.O.` W T ( T ! ! ( ~ ) ) X.| W S G L U J J ~ Q Y Q J ~ Q ~ E _ ' ^ L Q Y Z c B B L G M c c u q 6 e e e w 2 > 2 1 - - : 9 2 : : ",
"@...{ ( ! ~ T ( ! T ! ! ` ] ] I J / _ Y L Y ~ Y L U Z Q Y ' / Q Y P Q Y G A B S A S B c x u e u q 6 6 6 e 2 2 2 > - - , 0 2 , - ",
"X.[ | ( T ! T ! ~ ! ^ ^ [ | O.` U [ { ~ L U Y U J G L / ..' ` Y W ^ Q Y E Z S Y S M B S c u u u u 6 6 6 u 0 2 2 > - - : > > , - ",
"[ ` ..T v T T T ` ) ) ) [ +.#. .W ' Q U U U E Q E ' _ { o.o.{ U P Y Q Y L H V B V S B S c u g u u u 6 6 w w 2 > , - - , : , - $ ",
"X.+.%.W m P T W _ ` ( ^ `  . . ./ Y B B S W / ^ } X.' o.%.o./ S S S U L M n V L P I L K G n p p u e 6 3 2 2 2 : % $ - - , - % $ ",
"+.o.+._ I T I T ] ^ ~ ( ~ ) ) ` } / V c L / / / o.%.o.o.+.X.' J J L K B S n B L Y I I Y P V e p u e 6 6 5 > : : - $ - : - : - - ",
") _ ^ I K T D I ( ! ! ) ~ ~ / } } ^ I A U ~ /  ...@.} [ o.} [ [ / L S Z B c l B Z B L P K S f y 6 0 6 6 2 5 2 > - - - , - - - - ",
"~ ^ ^ L m K K I T K P ( ) ) ` ` / / L S L E ~ } } #.[ Q [ X.[ ` L c c j j k N K S z z j c j w 6 6 6 6 > - - > , @ + = % @ = % = ",
"R I I N m K K K T T R ~ Q ~ / [ [ / J A Q @.[ L ' &...I ..[ ^ W I B N c y u f y u M N y p i 6 2 2 > , % $ @ = @ $ @ @ $ @ $ @ @ ",
"Q W P l m H D P W ~ P A U /  . .X.~ f N ` ` N N A J A I ' .._ Y Y K c s e y e e e u y 4 6 5 > : > > % @ % , - $ @ = @ $ @ + X + ",
"W ^ Q m z V A K T W A j z G ) ` ' I t l H k 2 a k s 8 k ^ ..' W K A h f N y t f u w > 1 2 > , - % $ $ = $ - $ @ @ @ @ + X o   + ",
"W W P m d f v H K ! I z p x F ~ ^ T y k 0 0 r w s t 2 3 W / Q I S c y s K p 0 y w 2 , > , % - @ - $ @ @ @ + @ + + + X X X + o + ",
"F I K v h m N K P ~ ~ D N F I ! P S 0 2 0 y f w i e , 0 I A L K A k 6 > 0 0 7 2 2 2 - - = @ @ - = @ $ @ @ @ @ o   @ + @ + X X o ",
"V H D m h h N D P P K P G L P P A N p 2 0 r a f h t : f P K L N f 2 , 7 0 : - - - - - - - - $ @ @ @ @ $ @ @ @ @   X     @ X X X ",
"N A V z h z j N A A A K S V V V b z y > 2 2 r w 0 8 , 0 A l f p > , , > , - - = - @ @ % = - - - - $ @ @ X + X @ X @ X o     X   ",
"z N m h e d f N A H P I K K L G N f 2 , - - 2 9 , : , - 0 2 - - , - $ @ $ - - = @ - - % $ @ @ = @ @ @ @ + o X @           X     ",
"N N k y 2 9 9 b A A K L L A N K h : , , : , 2 2 1 2 - - : , % - $ - @ - - - % - , - % % = $ @ @ @ @ @ X o @ + +                 ",
"g h t w 0 9 2 y k a N A S m N K N 0 : , 2 0 9 - , - @ - - - $ $ @ : , - , : - > - , , - , - $ = - + X   +   X                   ",
"e y e 7 2 : : 7 2 9 h f 0 w d f i 2 0 2 2 2 , > , @ @ $ @ + @ , , - @ @ $ , = @ $ , - : $ @ @ $ - $ @ +                         ",
"7 2 , - - - @ @ @ 2 0 , @ @ - - @ - - - , @ $ @ % @ = @ @ o @ @ @ @ X X @ @ + X X @ @ @ + X   X + @ @ +                         "
};
