/* XPM */
static char *result[] = {
/* columns rows colors chars-per-pixel */
"64 64 131 2 ",
"   c #4F4732",
".  c #504935",
"X  c #564E3C",
"o  c #584F3C",
"O  c #5C523D",
"+  c #61563E",
"@  c #524D43",
"#  c #5D5444",
"$  c #5E5847",
"%  c #615643",
"&  c #655A44",
"*  c #695D45",
"=  c #625B4B",
"-  c #685E4D",
";  c #655E53",
":  c #66604F",
">  c #6C614B",
",  c #72654C",
"<  c #75684E",
"1  c #78694F",
"2  c #666151",
"3  c #6C6454",
"4  c #6D6856",
"5  c #6D655B",
"6  c #6E6959",
"7  c #716753",
"8  c #736955",
"9  c #7A6D54",
"0  c #736C5B",
"q  c #796F5C",
"w  c #76715F",
"e  c #7B725D",
"r  c #766F60",
"t  c #767161",
"y  c #7C7462",
"u  c #7F7865",
"i  c #7D766A",
"p  c #7F7969",
"a  c #80755D",
"s  c #817663",
"d  c #847A65",
"f  c #887D66",
"g  c #847C6B",
"h  c #897E6A",
"j  c #857E73",
"k  c #8B8066",
"l  c #86806E",
"z  c #8B816C",
"x  c #90856F",
"c  c #93886E",
"v  c #878072",
"b  c #8B8473",
"n  c #8F8876",
"m  c #8D8679",
"M  c #8E897A",
"N  c #918673",
"B  c #948A74",
"V  c #988D76",
"C  c #908779",
"Z  c #948C7C",
"A  c #998E7B",
"S  c #97917C",
"D  c #9C927D",
"F  c #A1967F",
"G  c #958E81",
"H  c #988F80",
"J  c #979082",
"K  c #9C9484",
"L  c #9F9886",
"P  c #9D9689",
"I  c #9F998B",
"U  c #9F9A90",
"Y  c #A19684",
"T  c #A39985",
"R  c #A89C86",
"E  c #A09788",
"W  c #A49B8B",
"Q  c #A99E8C",
"!  c #A59E91",
"~  c #A89F90",
"^  c #ABA087",
"/  c #A7A08E",
"(  c #ABA18E",
")  c #B0A68F",
"_  c #A6A192",
"`  c #ACA393",
"'  c #AEA896",
"]  c #ADA699",
"[  c #AEA99B",
"{  c #B1A694",
"}  c #B4A996",
"|  c #B9AE97",
" . c #B0A799",
".. c #B4AB9B",
"X. c #B9AE9D",
"o. c #B7B09F",
"O. c #BCB19D",
"+. c #B4AEA1",
"@. c #B9AEA1",
"#. c #B6B1A3",
"$. c #BBB3A3",
"%. c #BFB9A5",
"&. c #B6B3A9",
"*. c #BBB6A9",
"=. c #BEB9AC",
"-. c #BDBAB0",
";. c #C1B59E",
":. c #C1B6A4",
">. c #C4B9A5",
",. c #CABDA6",
"<. c #C3B7A8",
"1. c #C3BBAC",
"2. c #CABEAB",
"3. c #C2BEB2",
"4. c #C3C0AF",
"5. c #CCC0AD",
"6. c #C6C2B5",
"7. c #CAC4B4",
"8. c #C6C3B9",
"9. c #CAC6BA",
"0. c #CDC9BD",
"q. c #D1CBBC",
"w. c #C9C7C0",
"e. c #CECBC1",
"r. c #D1CEC3",
"t. c #D5D1C5",
"y. c #DAD2C2",
"u. c #D5D2C9",
"i. c #D9D5CA",
"p. c #DDD9CE",
"a. c #E3DCCA",
/* pixels */
"@ 0 K I J K P I ! _ _ G +.&.&.=.=.*.=.#...] ' ..' ..` / Q W _ +.=.3.3.6.8.+.3.+._ .._ I ` [ Q W ` Z p 2 5 K X.X._ Z E ` } ] Z m ",
"; b P W E P K K W ` ..M +.*.#.&.&.*.1.#.[ _ ` _ / _ W W W E W ..*.*.=.3.3.+.=...] [ _ ! / ` ` ` W K t 3 y Q $.X...W _ X.$.} Z M ",
"r G Q ` L K K E ` [ _ v _ #.o.#.[ +...` W L L L E T W W K G K I ` [ +.+.[ W o.[ ' ..] ' _ W W ( W T M v K { $.| ` ` } $.$. .K g ",
"j H Q +._ W W W _ ` W b J J I _ ] ! I P K L L I E K K K H H K G W ~ [ ] _ S ' o.#.#.#.o./ Q E / W W K K Q Q { ` / Q _ } @...~ Z ",
"H ~ ]  .~ Q ~ ! _ ] U v m G P U I P H P E E W W E E P K K P P G P U U ! U G P ` $.=.<.$. .` / W Q W P K W T Q W K H H W W { W E ",
"E ~  . .~ Q ~ ~ ` ] U i m P U U U ! ! ! ~ ~ ! ~ _ W ! ! ! W P U I _ _ _ ] m m [ $.$.o.X.` _ _ L Q _ W W _ _ ` _ K H W Q _ _ W E ",
"m C Z H P G Z H G Z i 5 j G P P J P P P W J K K K W I P P P P P P P I I _ g v ` ` _ ` ' ` _ ` L G W W E W ! _ E E E Q ! Q _ ~ P ",
"5 g g j b m G C G Z m M m G m m P K G G P K K E W I G ] [ [ +.&.*.+.=.=.o._ [ %.@.W / =.1.<.=.&..._ ! W P ` ] `  .W Q  .` ` ~ P ",
"Y @. .~ ~ (  . .` ` Q Y E ~ W ` ;.<.:.:.:.:.<.2.2.<.<.2.3.r.r.t.e.e.u.e.0.8.4.9.7.=.&.4.9.8.8.0.w.6.8.3.-.6.7.q... .$.7.7.3.W i ",
"Y <. . .X.} X. .} ` W W K Y Y Q { ;.:.:.Q ;.:.2.<.3.2.q.3.3.3.w.w.e.e.8.6.6.8.4.8.8.6.=.0.0.8.0.e.w.w.w.6.q.<.&.W <.r.t.r.3.! 5 ",
"~ <.X.:.;.X.:.;.X.~ W K H Y ( ( ) ;.;.<.) R ;.2.2.@.2.q.<.3.e.3.9.0.0.3.=.4.4.8.0.8.6.6.9.9.w.0.e.w.r.w.8.u.%.b ! 0.u.u.e.e.6.! ",
" .@.@.:.;.:.<.:.:.{ E C j A R R Q ( } ,.;.Y ( <.2.<.q.r.1.3.3.e.r.e.e.8.4.4.6.6.6.8.6.6.8.8.0.0.e.e.r.w.e.i.$.J [ r.u.u.u.p.u.3.",
" .@.:.@.2.2.2.<.:.~ H j A Y ` { R ;.} ;.:.( ` 2.<.<.3.u.3.3.r.t.r.e.0.6.6.4.9.9.6.9.3.8.8.9.e.e.e.r.e.w.0.i.o.#.#.6.r.u.p.u.r.8.",
"<.X. .:.2.2.2.<.@. .U G Y { ;.;.`  .;.<.:.X.X.2.<.<.2.i.3.3.r.u.u.e.8.6.4.8.8.7.3.6.3.8.9.6.8.0.r.r.u.r.9.p.%.7.....q.u.u.0.7.*.",
" . .:.<.2.q.3.2.:.{ ~ ~ ~ :.<.;.@.;.2.1.,.2.<.3.<.+.<.t.3.3.w.r.u.e.e.9.4.7.7.6.8.3.=.3.6.6.6.e.u.r.u.e.6.i.7.4..._ 3.q.0.3.*.P ",
":.X.~ @.3.2.2.2.:. . .{ ` ;.<.<.;.} ;.@.} ;.@.<.@.! @.r.3.3.8.w.9.8.8.=.#.&.=.*.1.1.&.%.6.6.9.0.w.w.e.e.&.t.7.7.%.I $.3.<.&. .P ",
"~ +. .+. .@.<.<.:.@.@.@. .@.@. .X.} ` ~ ~ ` X. .~ ] ] &. .+.+.+.+.+...` ` _ _ [ ..+.[ ] +.=.&.=.&.6.8.8._ 9.y.y.q.' ' %.$.%.o.} ",
"C ] ]  . .] @.@.@.&. .~  .` ~  . .X. . . .{ }  .~ ~ U ! ! ] ] ! ` ] ] ] ] _ ! _ ] _ ! ] [ +.[ [ &.&.&.&./ 7.y.y.y.>.o.o.=.4.7.$.",
"j  . .! ]  .&.@.&.+.] ] ] ] @.@.:.@.@.:.$.@.@.@. .] P ~ +.] +.] ..+.+.+.+...#.#.+.] [ ] [ [ +.+.&.&.&.&._ 6.a.a.a.q.1.7.q.q.q.1.",
"j ! U P U P P P P G G m G P P P P P W H K K K G H G m E G G G U ! H J I I P _ _ I J I ! ! ] ] ] ! I ! U M ..$.<.%.>.%.%.:.%.$.o.",
"] +.] P G G G C m m j i j W W W _ _ Q ` _ Q E E H j ~ ~ P H C K W E E W E Z b I I W W W Q _  ...] ` ! W !  .` X.O.<.$.%.o.%.o...",
"+.3.3. .~  . . .~ ~ ~ P E ! ! ] .. .} :.O.X.X.O.{ {  .(  .X. .X. .{ } X.' W [ $.o.O.;.:.<.<.<.1.7.2.$.{ W Q ~ X.>.<.$.%.:.>.O.{ ",
"+.-.&. . . . .@.+.@.] ! ~ ] ! ~ `  .{ O.O.X.} } { { Q Q  . .} } } { ` X.{ W %.o.o.%.X._ Y W Q X.:.$.../ K T W { o.' W ` o.O. .( ",
"-.-.<.3.3.3.3.3.3.w.-.-.3.] +.~ ` } ..:.$.X.X.O.;.{ Q { { { } X.} ..} } ..E $.:.:...K n A ~ ~ X.o.} ` W W E W { { / K T ( { ( W ",
"3.3.-.&.=.=.3.3.8.3.3.8.w.] ] ~ ..X.@.;.:.X. .X.X.} } { } { X.} X.} } ..} E @.$.:.@.K E K ~ ~ X.X. .{ ( Q E Q { { ` ~ ~ ....Q Q ",
"] &.&.] } ` ` ..*.3.&.-.w.&.&.+...X...@.:.;.} ;. .` ) ( T ( { ( { } { ` { E @.$.@. .` E K { { X. .{ { E Y Q E ( } O.@.} ..| Q Y ",
"H ! ` E { } Q  .+.+.] &.u.&.@.+.{ ` } X.} } X.} { { { ^ Y R Q Q ~ { ` { ~ Q @.<.@.<.@.W E W E ~ ~ Y E Q Q Y ~ { ` { } X.X.` Y Y ",
"j E ~ E } } { { ~ ! ! +.w.] ~ ]  .} X...X.{ (  .{ Y Y ^ T R Q Q Q { Q ` ~ E { $.:.:.:.{ W W W ~ ~ Q E Q E E { { ) { ..} ( Q H V ",
"E P E G H W D T ! ! P ! -.! ~ ~ Q } { { { ~ R { { h a Y Y Y T T R K / ` ~ E { @.@.@.{ Q R ( ( {  .X.( Q Q Q { { { { { { Y Y Y A ",
"K K P m N C C K W ! P W &.! ~ ~ ~ Q { } } ( Y Q ( j s Y Y A R R T T T ( ` T ` } { ( ~ Y Q }  .{ X.{ { Q Y Q { { { Q { Y H H H H ",
"j H K G j N C A W ! K ! +.! ~ ~ Q Q } } { ( Q R Q j h H Y Y R R Y W R /  .E E ` {  .{ Q Q X.X.{ X.X.E Q { { { ~ { Q Q Y H j Y K ",
"G J W P H K G W ~ ~ P ! *.! ] W Y W } } } ) { } { Y R R R ` ` R Y { ' (  .E K ..@.X. .} { | X.X.:.X.Q { } } } X.;.;.} { { Q ~ W ",
"J Z J Z Z S Z J W E C M I M m b C D K K b Z m Z M n l l n M S S n S S Z K n K _ / ` ` Y D K K E ` L S K T T K K H A A V A Z j N ",
"2.$...$.%.$.[ o.&.$._ P I P W T W E W _ / ` E P / S J / ! _ _ _ / ` ` ' o.#.1.1.%.4.7.1.#.#.<.%.$..._ W W ` Q Q Q W { { Q ~ W Q ",
"=.3.6.%.6.6.=.1.7.7.1.$.1.1.1.1.4.<.2.1.1.4.2.3.*.` %.9.0.t.t.t.t.t.t.i.y.y.0.0.q.t.t.0.9.7.9.7.6.2.<.` E  .} :.<.<.1.<.:.2.X...",
"{ $.o.' ..#.4.=.2.7.=.&.3.1.$.#.$.1.1.$.=.o.#.=.%._ =.9.q.0.0.0.r.0.9.9.q.q.7.0.0.7.6.6.7.=.=.4.=.=.$./ E } $.<.:.<.$.O.:.:.X.| ",
"] #.` K ! [ =.#.=.6.#.&.6.$...' ....&.&.*.X.] [ o.` #.6.0.r.0.r.e.e.q.7.0.0.8.q.9.8.=.*.=.*.=.%.%.o.#._ E o.$.:.<.@.X.@.:.:.;...",
"{ ` W K I _ o.] ..4...#.8.#./ E ' ` o.%.*.*.[ ] [ I I -.e.9.0.0.0.0.e.0.0.0.0.0.0.=.#.4.6.=.%.%.#...[ W K o...O...} ....:.@.X.X.",
"[ ] W L J _ [ _  .%.o.o.7.*.] W ` ..X.+.#.*.+._ +.P M =.8.3.8.0.0.9.e.e.e.r.0.0.3.&.#.*.=.=.&.#.#...' W E o.| ..{ ` @...;.{ { ` ",
"L ` } / P _ ] ` $.&.1.6.9.6.*.#.} o.&.#.#.#.[ ` &.G M =.-.=.4.e.q.0.e.q.t.e.9.9.6.&.[ #.*.*.#.o...` ' L K |  .| { { ;.{ { { ( X.",
"I _ Q K G W ! ] +.&.1.6.6.3.=...[ ..#.#.#.#...[ } J G +.-.&.8.0.t.e.e.t.r.e.9.-.=.[ U #.&.[ #.#.#...} K S } Q { { } $.X.} } X.<.",
"D W _ E M G W I W [ ` ` [ _ _ J G _ _ ..=.[ [ ` ] P M [ &.*.3.8.t.e.t.0.r.0.4.&.[ U _ _ ' ' [ o.[ X.[ K C { ` ` } } X.X.X.} { Q ",
"g B S V n Z M Z K W L L / L S M J L W _ ' / E W _ Z b ` &.*.#.*.6.4.9.6.4.-.&.[ _ J P _ / L L ) '  . .S B  .Q ` @.{ } +.{ Q K z ",
"a 8 w 7 p C b m K K Z S J S b M v b L J K P K I I m g / #.#.! _ 4.6.6.=.#.#.#.' [ I / _ / L / / o.O.o.T b W E K E G G T C b j g ",
"O O & 8 y l d u d e g b C B C b g b S Z S Z K K W C n o.[ $.' / o.*.#.#.%.#.o.[ [ _ / / F F / ' :.4.5.( C W T A Z A v b g g g j ",
".   O O = = = # O O > 3 3 3 7 = # 2 3 6 0 r p v v d m ' ' ' / ` o.} / ` ` [ / ) ' / / F S S S L } } ( S h j j g g g g j y t y r ",
"w a k d a z g s 0 e h 0 8 3 0 w 3 0 t d l l m Z K / / ....o.#.#.1.=.%.*.=.1.o.%.o.' / / L L S S ( ( / n b h d g g j b Z b b G j ",
"V Y D V S W C n 0 8 Z 0 8 7 0 B h g e u B K _ ..&.#...[ ..#.*.=.=.=.=.*.=./ L L / F L S n S S n T / D B h h C K Y T b g p g v t ",
"| | | ) | R V A B A B u z e s d a 8 8 0 h C E  .` / ` +.*.#.#.&.&.=.&.&.&.G S S S n n l g t w e l d e e , 9 b S K S t 0 0 6 6 $ ",
"| O.,.;.;.R T Q T Q Y 0 s u e u > 1 a 0 h H V s b N K X.#.o.o.[ #.[ #.#.+.M v n B l t t h 0 8 0 8 7 > > O > e n D l 0 2 3 3 6 = ",
";.;.5.;.;.{ ) ) { } R e d N S V h f a a s h B d w e b / } o.' _ +.#.+.+.+.M t t l g i t v 0 0 t 8 > O O O + e z n w : 2 4 6 4 2 ",
",.5.5.;.;.;.| ;.O.;.| z B Q / ^ R ^ h h d h h d e a B Y / #.o.} [ _ [ [ [ M r 4 p v j p g 0 q w e , O O O > d c l w w 6 t r 4 2 ",
"5.5.,.,.;.{ ) { ;.:.;.N V } { ) R { Y h f V h f k k F S Y o.o. ._ / / [ ' M t 2 t v v i 6 3 0 6 > > 1 , + * a z t 5 w 6 6 4 4 $ ",
",.,.:.:.X.| { ( | | ;.C S { } { ) { ) F h V h h z k D R K R } / S S / L / J t 2 6 t l i 3 3 r 8 * * 1 1 , 1 a e 6 2 2 w 6 4 4 5 ",
";.5.;.| ..| X.` X.:.O.B A ` { { | ( ) F V F h h c f N D F } ^ Q V z V z z Z t 2 3 6 t p 8 0 u , > * , 1 , , , e w : : : : 3 t t ",
";.;.;.| X.X.X.{ ..X.X.C G W Q Q Q ) ^ ) F h A A f x N x V ^ V V c d e k d s t : 3 6 6 w 3 0 e 8 * + + * + + , e 4 : = = : w g t ",
"@.@.@.@. . .@. ..... .Z G W W ! ~ E ~ E H j j h f c V f x V h V k e x D N s y 3 = : 2 > 3 w a , * * * * + - * 7 6 4 2 = 4 b b 8 ",
":.@.:.@.@.+.+.&.:.@.@.H ~ ..] !  .~ ~ Q R R H h h k V D V x h B c z h N V e g h q 3 3 : 8 d x 8 , * & & o 7 < q u p 4 > u V V e ",
"P P P P K P P U E ! P G E W G G H H j j j h h s s 9 a a a a s a e w e q 0 7 s y 3 = : $ - 0 0 # X o X o # o % & 2 4 = $ $ 8 8 : ",
"! ~ ! ~ ! U ! E K ! !  . . . .~ ~ ~ { Q Q Q E h s s A Y T K F N l b D V N H K V S B b d l b B z g s h 0 s s d x x B B n B B B n ",
"+.&.:.@.+.+.+.+.X.@.@.@.:.:.X.X.;. .;.;.) Q Q A g s { X.| { Q Y F Y T R W Y F A S S B n B B A A N h x 3 f d V R R ^ F V D V D F ",
"@.@. .@.@. .+.+.@.@.@.@.@.:.X.X.;.X.@.{ Q Q R A s a Q X.{ Q W ` Q Q ) ^ ( T Q Q T D Z Z K E W R Y V B 8 N f c R F ) ) V V R R F ",
"@.@.&.@.@.+.@.@.@.+.@.:.X.:.:.;.:.{ ) ;.R Y A V d a Y { Q T Q { { { ) ) { { { { / Y S L W _ ( ) Q R D q V c V R R { ;.D V F F V ",
" .@. . . . .@.@.@.@.@.:.X.@.;.:.} ( ) ( Y D A B d s Q ( Q W ( } } | { Q { | { { / R Y Y / ` { { Q T Y t V F R F V R R V c ^ F V "
};
